<svg width="128" height="148" viewBox="0 0 128 148" fill="none" xmlns="http://www.w3.org/2000/svg">
<path d="M109.402 124.062H13.6752V48.2462H109.402M88.8889 0V13.7846H34.188V0H20.5128V13.7846H13.6752C6.08547 13.7846 0 19.9188 0 27.5692V124.062C0 127.717 1.44078 131.224 4.00538 133.809C6.56998 136.394 10.0483 137.846 13.6752 137.846H109.402C113.029 137.846 116.507 136.394 119.072 133.809C121.636 131.224 123.077 127.717 123.077 124.062V27.5692C123.077 19.9188 116.923 13.7846 109.402 13.7846H102.564V0" fill="#193B99"/>
<path d="M67.6571 51.6923C77.114 51.6923 86.1835 55.449 92.8705 62.136C99.5576 68.8231 103.314 77.8926 103.314 87.3495C103.314 96.1815 100.078 104.3 94.7566 110.554L96.2377 112.035H100.571L128 139.464L119.771 147.692L92.3429 120.264V115.93L90.8617 114.449C84.608 119.77 76.4891 123.007 67.6571 123.007C58.2003 123.007 49.1307 119.25 42.4437 112.563C35.7567 105.876 32 96.8063 32 87.3495C32 77.8926 35.7567 68.8231 42.4437 62.136C49.1307 55.449 58.2003 51.6923 67.6571 51.6923ZM67.6571 62.6637C53.9429 62.6637 42.9714 73.6352 42.9714 87.3495C42.9714 101.064 53.9429 112.035 67.6571 112.035C81.3714 112.035 92.3429 101.064 92.3429 87.3495C92.3429 73.6352 81.3714 62.6637 67.6571 62.6637Z" fill="#D4E0FF"/>
<path d="M79.018 82.7103V76.0589H72.3807L67.6641 71.3846L63.018 76.0589H56.3666V82.7103L51.6923 87.3564L56.3666 92.0731V98.7103H63.018L67.6641 103.385L72.3807 98.7103H79.018V92.0731L83.6923 87.3564L79.018 82.7103ZM63.1875 80.3661C64.5714 80.3661 65.687 81.4817 65.687 82.8798C65.687 83.5427 65.4237 84.1785 64.9549 84.6472C64.4861 85.116 63.8504 85.3793 63.1875 85.3793C61.7894 85.3793 60.6738 84.2637 60.6738 82.8798C60.6738 81.4817 61.7894 80.3661 63.1875 80.3661ZM72.2113 94.4173C70.8273 94.4173 69.7117 93.2875 69.7117 91.9036C69.7117 91.2407 69.9751 90.6049 70.4438 90.1361C70.9126 89.6674 71.5484 89.404 72.2113 89.404C73.5952 89.404 74.725 90.5197 74.725 91.9036C74.725 92.5703 74.4601 93.2096 73.9887 93.681C73.5173 94.1524 72.878 94.4173 72.2113 94.4173ZM62.7214 94.4596L60.6032 92.3414L72.6491 80.2955L74.7673 82.4137L62.7214 94.4596Z" fill="#FFED29"/>
</svg>
