<svg width="140" height="128" viewBox="0 0 140 128" fill="none" xmlns="http://www.w3.org/2000/svg">
<path d="M120.739 84.9454L123.113 87.3891L109.661 101.236L107.287 98.7927L120.739 84.9454ZM99.3745 76.8H131.025C133.221 76.8 134.982 78.6124 134.982 80.8727V89.0182C132.806 89.0182 131.025 90.8509 131.025 93.0909C131.025 95.3513 132.806 97.1636 134.982 97.1636V105.309C134.982 107.569 133.221 109.382 131.025 109.382H99.3745C97.1985 109.382 95.4182 107.569 95.4182 105.309V97.1636C97.614 97.1636 99.3745 95.3513 99.3745 93.0909C99.3745 90.8509 97.614 89.0182 95.4182 89.0182V80.8727C95.4182 78.6124 97.1985 76.8 99.3745 76.8ZM99.3745 80.8727V86.0451C101.827 87.5113 103.331 90.1789 103.331 93.0909C103.331 96.0029 101.827 98.6909 99.3745 100.137V105.309H131.025V100.137C128.573 98.6909 127.069 96.0029 127.069 93.0909C127.069 90.1789 128.573 87.5113 131.025 86.0451V80.8727H99.3745ZM110.255 84.9454C111.896 84.9454 113.222 86.3098 113.222 88C113.222 89.6902 111.896 91.0545 110.255 91.0545C108.613 91.0545 107.287 89.6902 107.287 88C107.287 86.3098 108.613 84.9454 110.255 84.9454ZM120.145 95.1273C121.787 95.1273 123.113 96.4916 123.113 98.1818C123.113 99.872 121.787 101.236 120.145 101.236C118.504 101.236 117.178 99.872 117.178 98.1818C117.178 96.4916 118.504 95.1273 120.145 95.1273Z" fill="#FFED29"/>
<path d="M108.912 0L106.664 4.90598L101.776 7.13596L106.664 9.38379L108.912 14.2719L111.142 9.38379L116.048 7.13596L111.142 4.90598M91.0719 5.35197L86.6119 15.1639L76.8 19.6239L86.6119 24.0839L91.0719 33.8958L95.5319 24.0839L105.344 19.6239L95.5319 15.1639M108.912 24.9759L106.664 29.864L101.776 32.1118L106.664 34.3418L108.912 39.2478L111.142 34.3418L116.048 32.1118L111.142 29.864" fill="#D4E0FF"/>
<path d="M4.54439 114.114H135.368V128H4.54439V114.114ZM139.292 49.1264C137.846 43.5719 132.131 40.2392 126.623 41.7667L90.0615 51.6259L42.4143 6.98181L29.2631 10.5228L57.7688 60.3048L23.5482 69.5391L9.98388 58.8467L0 61.5546L12.5315 83.4947L17.8333 92.7291L28.85 89.813L65.4116 79.8843L95.3632 71.8303L131.925 62.0406C137.502 60.3742 140.738 54.6809 139.292 49.1264Z" fill="#193B99"/>
</svg>
