<svg width="170" height="128" viewBox="0 0 170 128" fill="none" xmlns="http://www.w3.org/2000/svg">
<path d="M42.2642 125.585C30.5839 125.585 20.6198 121.477 12.3719 113.262C4.12396 104.994 0 94.9213 0 83.043C0 72.8392 2.99691 63.7343 8.99074 55.7283C15.0358 47.7223 22.9251 42.6204 32.6587 40.4226C35.8861 28.3874 42.2898 18.6546 51.8696 11.2241C61.5007 3.74138 72.387 0 84.5283 0C99.5385 0 112.243 5.33736 122.643 16.0121C133.094 26.6345 138.319 39.6116 138.319 54.9434C147.182 55.9899 154.508 59.9145 160.296 66.717C166.137 73.4148 169.057 81.2639 169.057 90.2642C169.057 100.102 165.701 108.448 158.99 115.303C152.279 122.157 144.108 125.585 134.477 125.585H42.2642Z" fill="#193B99"/>
<path d="M113.509 65.2076C117.673 65.2076 121.666 66.8615 124.61 69.8054C127.554 72.7494 129.208 76.7423 129.208 80.9057C129.208 85.0691 127.554 89.0619 124.61 92.0059C121.666 94.9499 117.673 96.6038 113.509 96.6038C109.346 96.6038 105.353 94.9499 102.409 92.0059C99.4652 89.0619 97.8113 85.0691 97.8113 80.9057C97.8113 76.7423 99.4652 72.7494 102.409 69.8054C105.353 66.8615 109.346 65.2076 113.509 65.2076ZM113.509 104.453C130.856 104.453 144.906 111.478 144.906 120.151V128H82.1132V120.151C82.1132 111.478 96.163 104.453 113.509 104.453Z" fill="#D4E0FF"/>
<path d="M77.283 123.706H33.8113V128H77.283V123.706ZM38.1585 115.119C38.1585 116.193 38.5932 117.266 39.4626 118.125C40.3321 118.984 41.4189 119.413 42.5056 119.413V95.7987C41.4189 95.7987 40.3321 96.2281 39.4626 97.0868C38.5932 97.9455 38.1585 99.0189 38.1585 100.092V115.119ZM58.8075 95.7987H52.2868C52.2868 94.94 52.5041 94.0813 53.1562 93.4373C53.8083 92.7933 54.4604 92.5786 55.5472 92.5786C56.4166 92.5786 57.286 92.7933 57.9381 93.4373C58.3728 94.0813 58.8075 94.94 58.8075 95.7987ZM44.6792 95.7987V119.413H66.4151V95.7987H62.0679C62.0679 94.0813 61.4158 92.5786 60.1117 91.2906C58.8075 90.0025 57.286 89.3585 55.5472 89.3585C53.8083 89.3585 52.2868 90.0025 50.9826 91.2906C49.6785 92.5786 49.0264 94.0813 49.0264 95.7987H44.6792ZM68.5887 119.413C69.6755 119.413 70.7623 118.984 71.6317 118.125C72.5011 117.266 72.9358 116.193 72.9358 115.119V100.092C72.9358 99.0189 72.5011 97.9455 71.6317 97.0868C70.7623 96.2281 69.6755 95.7987 68.5887 95.7987V119.413Z" fill="#FFED29"/>
</svg>
