<?xml version="1.0" encoding="UTF-8" standalone="no"?>
<!DOCTYPE svg PUBLIC "-//W3C//DTD SVG 1.1//EN" "http://www.w3.org/Graphics/SVG/1.1/DTD/svg11.dtd">
<svg width="100%" height="100%" viewBox="0 0 1504 758" version="1.1" xmlns="http://www.w3.org/2000/svg" xmlns:xlink="http://www.w3.org/1999/xlink" xml:space="preserve" xmlns:serif="http://www.serif.com/" style="fill-rule:evenodd;clip-rule:evenodd;stroke-linejoin:round;stroke-miterlimit:2;">
    <g>
        <path d="M1123.81,597.741L1123.81,604.429L1089.72,604.429L1089.72,640.3L1104.43,640.3L1094.18,643.638L1094.18,757.5L1071.67,757.5L1071.67,643.861L1061.2,640.3L1076.13,640.3L1076.13,604.429L962.712,604.429L962.712,640.3L977.643,640.3L967.396,643.638L967.396,757.5L944.664,757.5L944.664,643.861L934.638,640.3L949.34,640.3L949.34,604.429L915.247,604.429L915.247,597.741L906.113,597.741L906.113,592.839L949.34,592.839L949.34,573.45L939.09,573.45L939.09,565.874C925.059,563.871 910.573,561.423 896.087,558.521L896.087,542.032C890.736,541.143 885.168,540.028 879.596,538.693L879.596,525.317C873.357,524.206 866.9,522.867 860.661,521.538L860.661,509.497C967.84,527.549 1073.68,526.43 1178.18,509.497L1178.18,521.538C1171.94,522.867 1165.7,524.206 1159.25,525.317L1159.25,538.693C1153.89,540.028 1148.32,541.143 1142.76,542.255L1142.76,558.521C1128.72,561.648 1114.23,564.314 1099.75,566.32L1099.75,573.45L1089.72,573.45L1089.72,592.839L1132.73,592.839L1132.73,597.741L1123.81,597.741ZM1425.15,742.89L1429.27,742.89L1398.19,682.792C1381.93,667.149 1359.7,657.687 1335.42,657.687C1313.19,657.687 1293.01,665.713 1277.37,678.882L1244.24,742.89L1250.21,742.89L1250.21,757.5L1172,757.5L1172,742.89L1182.29,742.89L1246.71,618.381L1246.71,599.651L1260.5,599.651L1283.34,534.197L1283.34,532.756L1283.75,532.756L1290.14,514.233L1287.67,514.233L1287.67,496.946L1294.87,496.946L1294.87,493.657L1284.17,493.657L1284.17,474.924L1300.43,474.924C1312.57,379.842 1318.33,216.428 1320.18,164.155L1319.77,164.155L1319.77,160.04L1320.39,160.04L1320.6,149.953L1317.72,149.953L1317.72,133.078L1325.13,133.078L1325.13,112.289L1333.77,112.289L1333.77,82.86L1336.65,82.86L1336.65,55.9L1339.95,55.9L1339.95,82.86L1343.03,82.86L1343.03,112.289L1351.46,112.289L1351.46,133.078L1359.08,133.078L1359.08,149.953L1356,149.953L1356.41,160.04L1356.82,160.04L1356.82,164.155L1356.62,164.155C1357.64,193.587 1359.7,258.62 1363.82,326.95L1364.03,327.567L1363.82,327.77C1366.29,369.141 1369.37,411.334 1373.08,447.556C1374.11,457.431 1375.34,466.284 1376.16,474.924L1392.63,474.924L1392.63,493.657L1381.93,493.657L1381.93,496.946L1388.93,496.946L1388.93,514.233L1387.28,514.233L1393.66,532.756L1416.92,599.651L1424.11,599.651L1424.11,617.144L1425.56,616.526L1491.01,742.89L1503.36,742.89L1503.36,757.5L1425.15,757.5L1425.15,742.89ZM830.099,757.499L710.299,757.499L710.299,686.007L830.099,686.007L830.099,757.499ZM324.669,604.33L240.079,519.741C231.47,499.97 221.121,483.183 208.686,471.784L316.299,364.17L311.829,359.701L286.639,334.511L173.587,447.562L183.506,457.48C179.428,456.42 175.174,455.859 170.745,455.847L170.745,455.841C170.721,455.841 170.697,455.844 170.674,455.844C170.649,455.844 170.625,455.841 170.602,455.841L170.602,455.847C158.297,455.88 147.342,460.151 137.594,467.636L29.659,359.701L25.19,364.17L0,389.361L110.91,500.272C96.592,525.535 86.195,558.853 78.661,592.869L25.19,646.34L29.659,650.81L54.85,676L66.49,664.36C60.419,712.111 59.276,749.167 59.276,749.167L50.944,749.167L50.944,757.499L290.402,757.499L290.402,749.167L282.071,749.167C282.071,749.167 279.839,676.841 265.055,604.036L311.829,650.81L324.669,637.97L324.669,757.499L454.591,757.499L454.591,429.177L541.482,429.177L541.482,757.499L671.403,757.499L671.403,309.806L651.129,309.806L651.129,209.262L640.371,209.262L640.371,143.473L630.854,143.473L630.854,96.304L608.201,55.989L608.201,0L604.684,0L604.684,55.988L582.03,96.304L582.03,143.473L572.514,143.473L572.514,209.262L561.756,209.262L561.756,309.806L541.482,309.806L541.482,395.662L454.591,395.662L454.591,309.806L434.316,309.806L434.316,209.262L423.559,209.262L423.559,143.473L414.042,143.473L414.042,96.304L391.388,55.988L391.388,0L387.871,0L387.871,55.989L365.217,96.304L365.217,143.473L355.701,143.473L355.701,209.262L344.943,209.262L344.943,309.806L324.669,309.806L324.669,604.33ZM198.253,749.167L143.094,749.167L143.094,699.752C143.094,693.941 146.86,678.457 170.674,678.424C194.487,678.457 198.253,693.941 198.253,699.752L198.253,749.167ZM1220.57,727.043L1233.34,742.89L1191.76,742.89L1193.61,738.987L1220.57,727.043ZM1452.31,727.043L1439.76,742.89L1481.75,742.89L1479.9,739.186L1452.31,727.043ZM1236.83,738.572L1225.93,724.577L1249.59,714.283L1236.83,738.572ZM1436.26,738.158L1446.96,724.577L1423.91,714.283L1436.26,738.158ZM1465.28,710.991L1456.23,722.519L1475.78,730.954L1465.28,710.991ZM1208.02,711.2L1216.66,722.519L1197.93,730.752L1208.02,711.2ZM1450.87,720.045L1461.37,707.084L1422.06,707.084L1450.87,720.045ZM1222.01,720.045L1211.72,707.084L1251.03,707.084L1222.01,720.045ZM1239.3,694.32L1252.06,703.167L1215.01,703.167L1239.3,694.32ZM1433.59,694.32L1421.03,703.167L1457.87,703.167L1433.59,694.32ZM1244.24,692.472L1264.41,685.266L1256.39,701.112L1244.24,692.472ZM1416.92,700.904L1428.85,692.472L1409.1,685.471L1416.92,700.904ZM1450.67,682.585L1438.52,691.026L1458.69,698.23L1450.67,682.585ZM1222.84,682.792L1234.57,691.026L1214.81,698.23L1222.84,682.792ZM1239.3,689.377L1228.39,681.765L1260.09,681.765L1239.3,689.377ZM1433.59,689.377L1444.7,681.765L1413.01,681.765L1433.59,689.377ZM818.329,680.43L818.329,613.573L813.379,613.573L813.379,680.43L809.659,680.43L809.659,613.573L804.399,613.573L804.399,680.43L800.679,680.43L800.679,613.573L795.739,613.573L795.739,680.43L791.709,680.43L791.709,613.573L786.759,613.573L786.759,680.43L782.739,680.43L782.739,613.573L777.779,613.573L777.779,680.43L773.759,680.43L773.759,613.573L768.799,613.573L768.799,680.43L764.779,680.43L764.779,613.573L759.829,613.573L759.829,680.43L756.109,680.43L756.109,613.573L750.849,613.573L750.849,680.43L747.139,680.43L747.139,613.573L742.189,613.573L742.189,680.43L738.159,680.43L738.159,613.573L733.209,613.573L733.209,680.43L729.179,680.43L729.179,613.573L724.239,613.573L724.239,680.43L720.209,680.43L720.209,542.064L822.359,542.064L822.359,680.43L818.329,680.43ZM1409.1,677.855L1443.87,677.855L1421.03,669.624L1409.1,677.855ZM1264,677.855L1229.21,677.855L1252.06,669.624L1264,677.855ZM1268.93,676.419L1256.8,667.974L1277.37,660.777L1268.93,676.419ZM1404.16,676.212L1416.09,667.974L1396.13,660.777L1404.16,676.212ZM1437.7,658.095L1425.98,666.327L1445.73,673.534L1437.7,658.095ZM1235.39,658.3L1247.12,666.327L1227.57,673.328L1235.39,658.3ZM54.139,666.554L46.114,658.529L53.122,651.521L61.147,659.545L54.139,666.554ZM1252.06,664.478L1240.33,656.453L1274.29,656.453L1252.06,664.478ZM1421.03,664.478L1432.77,656.453L1398.6,656.453L1421.03,664.478ZM1388.72,664.272L1386.46,659.948C1371.43,651.097 1354.14,646.166 1335.42,646.166C1318.33,646.166 1302.08,650.481 1288.08,658.095L1286.02,662.218C1300.63,653.983 1317.51,649.04 1335.42,649.04C1355.17,649.04 1373.08,654.599 1388.72,664.272ZM68.789,647.482L62.975,641.668L56.576,648.067L64.6,656.092L68.053,652.639C68.292,650.931 68.537,649.212 68.789,647.482ZM34.636,647.051L41.644,640.043L49.669,648.067L42.66,655.075L34.636,647.051ZM1281.49,652.744L1238.27,652.744L1242.18,645.127L1285.4,645.127L1281.49,652.744ZM1392.01,652.744L1435.03,652.744L1431.11,645.127L1388.1,645.127L1392.01,652.744ZM1375.54,638.96L1375.54,645.338C1376.99,645.958 1378.43,646.573 1379.67,646.985L1375.54,638.96ZM1298.78,644.097L1298.78,637.307L1294.26,645.958C1295.69,645.127 1297.13,644.717 1298.78,644.097ZM1373.9,644.717L1373.9,635.666L1371.23,630.521L1371.23,643.692L1373.9,644.717ZM51.497,630.19L59.522,638.215L53.122,644.613L45.098,636.589L51.497,630.19ZM1303.11,642.663L1303.11,628.869L1300.63,634.018L1300.63,643.485L1303.11,642.663ZM1369.37,643.277L1369.37,627.227L1367.73,623.935L1366.7,623.935L1366.7,642.249L1369.37,643.277ZM1307.63,641.428L1307.63,623.935L1305.78,623.935L1304.95,625.376L1304.95,642.249L1307.63,641.428ZM1364.85,641.629L1364.85,623.935L1362.37,623.935L1362.37,641.016L1364.85,641.629ZM66.428,638.215L69.684,641.47C70.074,638.911 70.478,636.335 70.897,633.747L66.428,638.215ZM312.54,641.364L305.531,634.357L313.556,626.331L320.564,633.339L312.54,641.364ZM1287.26,641.222L1244.24,641.222L1253.29,623.935L1296.31,623.935L1287.26,641.222ZM1429.06,641.222L1386.05,641.222L1377.19,623.935L1420.21,623.935L1429.06,641.222ZM1312.16,640.196L1312.16,623.935L1309.48,623.935L1309.48,641.016L1312.16,640.196ZM1360.52,640.808L1360.52,623.935L1357.85,623.935L1357.85,639.988L1360.52,640.808ZM1316.48,639.576L1316.48,623.935L1313.8,623.935L1313.8,639.988L1316.48,639.576ZM1356,639.781L1356,623.935L1353.32,623.935L1353.32,639.374L1356,639.781ZM1351.67,638.96L1351.67,623.935L1349,623.935L1349,638.547L1351.67,638.96ZM1320.8,638.755L1320.8,623.935L1318.13,623.935L1318.13,638.96L1320.8,638.755ZM1325.13,638.34L1325.13,623.935L1322.45,623.935L1322.45,638.547L1325.13,638.34ZM1347.36,638.34L1347.36,623.935L1344.68,623.935L1344.68,638.139L1347.36,638.34ZM1329.65,637.933L1329.65,623.935L1326.98,623.935L1326.98,638.139L1329.65,637.933ZM1343.03,638.139L1343.03,623.935L1340.36,623.935L1340.36,637.933L1343.03,638.139ZM1333.98,637.933L1333.98,623.935L1331.5,623.935L1331.5,637.933L1333.98,637.933ZM1338.5,637.933L1338.5,623.935L1335.83,623.935L1335.83,637.933L1338.5,637.933ZM61.35,620.337L69.374,628.362L62.975,634.761L54.95,626.736L61.35,620.337ZM295.678,624.503L303.703,616.479L310.102,622.878L302.078,630.902L295.678,624.503ZM324.669,615.219L324.669,629.235L324.018,629.886L317.01,622.878L324.669,615.219ZM153.221,598.282C153.221,594.603 155.609,584.805 170.674,584.77C185.738,584.805 188.126,594.603 188.126,598.282L188.126,629.601L153.221,629.601L153.221,598.282ZM74.404,613.687L71.201,610.484L64.803,616.884L72.443,624.523C73.068,620.924 73.721,617.306 74.404,613.687ZM285.826,614.65L293.85,606.626L300.25,613.024L292.224,621.049L285.826,614.65ZM321.581,611.399L313.556,619.424L307.156,613.025L315.182,605L321.581,611.399ZM275.973,604.798L283.998,596.774L290.397,603.173L282.372,611.197L275.973,604.798ZM759.829,609.852L764.779,609.852L764.779,545.164L759.829,545.164L759.829,609.852ZM813.379,609.852L818.329,609.852L818.329,545.164L813.379,545.164L813.379,609.852ZM768.799,609.852L773.759,609.852L773.759,545.164L768.799,545.164L768.799,609.852ZM804.399,609.852L809.659,609.852L809.659,545.164L804.399,545.164L804.399,609.852ZM724.239,609.852L729.179,609.852L729.179,545.164L724.239,545.164L724.239,609.852ZM733.209,609.852L738.159,609.852L738.159,545.164L733.209,545.164L733.209,609.852ZM795.739,609.852L800.679,609.852L800.679,545.164L795.739,545.164L795.739,609.852ZM742.189,609.852L747.139,609.852L747.139,545.164L742.189,545.164L742.189,609.852ZM750.849,609.852L756.109,609.852L756.109,545.164L750.849,545.164L750.849,609.852ZM786.759,609.852L791.709,609.852L791.709,545.164L786.759,545.164L786.759,609.852ZM777.779,609.852L782.739,609.852L782.739,545.164L777.779,545.164L777.779,609.852ZM311.729,601.546L303.702,609.571L297.305,603.173L305.329,595.148L311.729,601.546ZM74.656,607.031L75.52,607.895C75.662,607.175 75.805,606.455 75.949,605.738L74.656,607.031ZM266.121,594.945L274.145,586.92L280.545,593.319L272.52,601.345L266.121,594.945ZM301.876,591.694L293.85,599.719L287.452,593.319L295.477,585.295L301.876,591.694ZM1325.54,525.56L1352.5,525.56L1363.82,599.651L1313.8,599.651L1319.57,561.779L1325.54,525.56ZM1268.32,599.651L1304.34,599.651L1290.34,586.271L1268.32,599.651ZM1386.05,586.271L1372.46,599.651L1408.06,599.651L1386.05,586.271ZM1294.05,584.42L1313.8,572.686L1309.69,599.239L1294.05,584.42ZM1382.34,584.42L1364.03,573.302L1367.93,598.205L1382.34,584.42ZM1402.51,570.633L1389.34,583.181L1411.36,595.945L1402.51,570.633ZM1266.26,595.324L1287.05,583.181L1274.91,571.452L1266.26,595.324ZM1076.13,573.45L1065.88,573.45L1065.88,569.889C1054.07,571 1041.82,571.449 1029.78,571.673L1029.78,592.839L1076.13,592.839L1076.13,573.45ZM972.958,569.666L972.958,573.45L962.712,573.45L962.712,592.839L1009.28,592.839L1009.28,571.449C997.249,571.225 985.219,570.561 972.958,569.666ZM260.014,581.347C260.801,584.589 261.561,587.845 262.296,591.119L262.668,591.491L270.692,583.467L264.293,577.068L260.014,581.347ZM292.023,581.842L283.998,589.866L277.599,583.467L285.624,575.442L292.023,581.842ZM1310.1,569.188L1290.75,580.918L1278.41,569.188L1310.1,569.188ZM1366.29,569.188L1385.84,580.918L1397.98,569.188L1366.29,569.188ZM282.171,571.989L274.145,580.014L267.747,573.614L275.771,565.59L282.171,571.989ZM257.093,569.868C257.621,571.845 258.138,573.832 258.64,575.813L260.839,573.614L257.093,569.868ZM272.318,562.136L264.293,570.161L257.894,563.762L265.919,555.737L272.318,562.136ZM1378.64,552.307L1365.67,565.276L1399.83,565.276L1378.64,552.307ZM1280.46,565.276L1312.37,565.276L1299.6,552.721L1280.46,565.276ZM1375.54,550.25L1358.67,539.756L1362.17,561.779L1362.37,563.427L1375.54,550.25ZM1302.9,550.665L1318.95,540.377L1315.24,563.219L1302.9,550.665ZM1278,561.779L1296.51,549.638L1286.02,539.14L1278,561.779ZM251.463,550.487C252.486,553.719 253.474,556.988 254.434,560.302L254.441,560.309L262.465,552.283L256.066,545.885L251.463,550.487ZM1391.6,539.348L1381.93,549.223L1398.6,559.716L1391.6,539.348ZM1316.27,536.668L1299.6,547.582L1288.7,536.668L1316.27,536.668ZM1361.76,536.668L1378.64,547.167L1389.13,536.668L1361.76,536.668ZM246.756,536.575C247.79,539.431 248.794,542.33 249.772,545.273L252.613,542.432L246.756,536.575ZM822.669,392.256L720.829,392.256L720.829,537.113L822.669,537.113L822.669,392.256ZM796.049,534.333L800.989,534.333L800.989,463.759L796.049,463.759L796.049,534.333ZM733.519,534.333L738.469,534.333L738.469,463.759L733.519,463.759L733.519,534.333ZM742.499,534.333L747.449,534.333L747.449,463.759L742.499,463.759L742.499,534.333ZM813.999,534.333L818.959,534.333L818.959,463.759L813.999,463.759L813.999,534.333ZM724.549,534.333L729.489,534.333L729.489,463.759L724.549,463.759L724.549,534.333ZM778.089,534.333L783.049,534.333L783.049,463.759L778.089,463.759L778.089,534.333ZM787.069,534.333L792.019,534.333L792.019,463.759L787.069,463.759L787.069,534.333ZM751.469,534.333L756.419,534.333L756.419,463.759L751.469,463.759L751.469,534.333ZM760.449,534.333L765.399,534.333L765.399,463.759L760.449,463.759L760.449,534.333ZM769.109,534.333L774.379,534.333L774.379,463.759L769.109,463.759L769.109,534.333ZM805.029,534.333L809.979,534.333L809.979,463.759L805.029,463.759L805.029,534.333ZM1307.42,522.884L1320.8,514.233L1322.65,514.233L1320.18,532.756L1319.37,532.756L1307.42,522.884ZM1291.57,532.756L1314.63,532.756L1304.95,524.526L1291.57,532.756ZM1369.16,522.259L1354.76,514.233L1357.85,532.756L1369.16,522.259ZM1371.85,523.705L1362.17,532.756L1387.49,532.756L1371.85,523.705ZM1288.9,530.91L1302.49,522.259L1294.26,515.27L1288.9,530.91ZM1382.75,514.233L1382.13,514.233L1374.31,521.642L1388.1,529.668L1382.75,514.233ZM1351.67,521.642L1325.95,521.642L1327.18,514.233L1350.44,514.233L1351.67,521.642ZM1315.03,514.233L1304.95,520.617L1297.75,514.233L1315.03,514.233ZM1361.34,514.233L1371.64,520.202L1378.02,514.233L1361.34,514.233ZM121.265,484.419L116.607,479.761L108.582,487.785L113.762,492.965L118.449,488.279C119.373,486.959 120.312,485.672 121.265,484.419ZM98.729,477.933L106.754,469.907L113.153,476.307L105.128,484.332L98.729,477.933ZM132.103,472.301L128.084,468.283L120.06,476.307L124.326,480.573C126.823,477.579 129.414,474.813 132.103,472.301ZM1304.95,474.924L1315.45,466.692L1322.45,474.102L1322.45,474.31L1322.24,474.924L1304.95,474.924ZM1372.05,474.924L1361.76,466.692L1354.14,474.718L1354.35,474.924L1372.05,474.924ZM88.876,468.08L96.901,460.056L103.3,466.455L95.276,474.48L88.876,468.08ZM124.631,464.829L116.607,472.854L110.207,466.455L118.232,458.43L124.631,464.829ZM1313.8,464.634L1304.54,472.049C1304.95,467.106 1305.78,461.961 1306.19,456.817L1313.8,464.634ZM1359.49,464.843L1351.06,457.846C1351.67,462.993 1352.5,467.511 1353.32,471.428L1359.49,464.843ZM1363.61,464.634L1372.05,471.428C1371.64,466.898 1370.82,462.168 1370.4,457.431L1363.61,464.634ZM1317.72,464.843L1325.74,458.46C1324.92,462.993 1324.3,467.312 1323.48,471.019L1317.72,464.843ZM203.142,467.172L207.717,462.596L199.693,454.571L194.512,459.751L199.188,464.426C200.526,465.282 201.842,466.198 203.142,467.172ZM79.024,458.228L87.048,450.203L93.448,456.602L85.423,464.627L79.024,458.228ZM114.778,454.977L106.754,463.001L100.354,456.602L108.379,448.577L114.778,454.977ZM1351.26,454.762L1361.34,462.993L1368.96,454.762L1351.26,454.762ZM1325.95,454.762L1315.86,462.993L1308.24,454.762L1325.95,454.762ZM796.049,460.035L800.989,460.035L800.989,395.038L796.049,395.038L796.049,460.035ZM787.069,460.035L792.019,460.035L792.019,395.038L787.069,395.038L787.069,460.035ZM805.029,460.035L809.979,460.035L809.979,395.038L805.029,395.038L805.029,460.035ZM778.089,460.035L783.049,460.035L783.049,395.038L778.089,395.038L778.089,460.035ZM769.109,460.035L774.379,460.035L774.379,395.038L769.109,395.038L769.109,460.035ZM760.449,460.035L765.399,460.035L765.399,395.038L760.449,395.038L760.449,460.035ZM751.469,460.035L756.419,460.035L756.419,395.038L751.469,395.038L751.469,460.035ZM742.499,460.035L747.449,460.035L747.449,395.038L742.499,395.038L742.499,460.035ZM724.549,460.035L729.489,460.035L729.489,395.038L724.549,395.038L724.549,460.035ZM813.999,460.035L818.959,460.035L818.959,395.038L813.999,395.038L813.999,460.035ZM733.519,460.035L738.469,460.035L738.469,395.038L733.519,395.038L733.519,460.035ZM211.171,459.143L203.146,451.117L209.545,444.718L217.571,452.743L211.171,459.143ZM183.034,448.274L188.215,443.093L196.239,451.117L191.06,456.298L183.034,448.274ZM69.171,448.375L77.196,440.351L83.594,446.749L75.57,454.774L69.171,448.375ZM104.926,445.123L96.901,453.149L90.503,446.75L98.526,438.725L104.926,445.123ZM1311.74,450.845L1318.33,445.501L1323.27,450.845L1311.74,450.845ZM1316.48,443.435L1307.63,450.845L1307.01,450.845C1307.42,445.704 1307.84,440.352 1308.45,435.001L1316.48,443.435ZM1356.82,443.848L1348.38,437.058C1348.79,441.793 1349.21,446.53 1350.03,450.845L1356.82,443.848ZM1365.26,450.845L1359.08,445.501L1353.94,450.845L1365.26,450.845ZM1360.73,443.435L1369.78,450.845C1369.16,445.91 1368.76,440.764 1368.14,435.822L1360.73,443.435ZM1320.6,443.848L1328.42,437.67C1327.8,442.001 1327.39,446.53 1326.98,450.433L1320.6,443.848ZM221.023,449.29L212.999,441.265L219.399,434.865L227.423,442.891L221.023,449.29ZM198.067,433.24L206.093,441.265L199.693,447.664L191.668,439.64L198.067,433.24ZM59.318,438.523L67.343,430.497L73.742,436.897L65.718,444.921L59.318,438.523ZM95.073,435.271L87.048,443.296L80.649,436.897L88.675,428.872L95.073,435.271ZM1327.6,434.795L1318.54,441.793L1312.16,434.795L1327.6,434.795ZM1349.82,434.795L1358.46,441.793L1365.26,434.795L1349.82,434.795ZM230.877,439.437L222.851,431.412L229.251,425.013L237.275,433.038L230.877,439.437ZM207.921,423.387L215.945,431.412L209.545,437.812L201.521,429.786L207.921,423.387ZM49.466,428.669L57.49,420.645L63.89,427.044L55.865,435.068L49.466,428.669ZM85.22,425.418L77.196,433.443L70.797,427.044L78.822,419.02L85.22,425.418ZM1310.31,430.885L1319.77,423.065L1327.39,430.885L1310.31,430.885ZM1367.11,430.885L1357.23,423.065L1350.03,430.885L1367.11,430.885ZM240.729,429.585L232.704,421.56L239.103,415.161L247.128,423.186L240.729,429.585ZM1355.17,421.412L1346.32,414.006C1346.53,419.357 1347.14,424.508 1347.56,429.438L1355.17,421.412ZM1322.03,421.412L1330.27,414.835C1329.86,419.357 1329.65,424.299 1329.03,428.618L1322.03,421.412ZM1318.13,421.208L1309.08,428.203C1309.69,423.679 1310.1,418.743 1310.31,413.8L1311.34,413.8L1318.13,421.208ZM217.773,413.535L225.797,421.56L219.399,427.959L211.373,419.935L217.773,413.535ZM1359.29,421.208L1367.52,427.795C1367.11,423.065 1366.49,418.535 1366.29,413.8L1366.08,413.8L1359.29,421.208ZM39.613,418.817L47.638,410.792L54.038,417.191L46.012,425.217L39.613,418.817ZM75.368,415.566L67.343,423.591L60.945,417.191L68.968,409.167L75.368,415.566ZM250.581,419.732L242.556,411.707L248.956,405.308L256.981,413.332L250.581,419.732ZM1350.23,413.8L1357.03,419.357L1362.17,413.8L1350.23,413.8ZM1327.18,413.8L1320.39,419.357L1315.24,413.8L1327.18,413.8ZM227.625,403.683L235.65,411.707L229.251,418.107L221.226,410.081L227.625,403.683ZM29.76,408.965L37.786,400.941L44.184,407.339L36.16,415.363L29.76,408.965ZM65.516,405.714L57.49,413.738L51.091,407.339L59.116,399.315L65.516,405.714ZM1313.8,409.89L1322.24,402.892L1328.83,409.89L1313.8,409.89ZM1363.61,409.89L1354.76,402.892L1348.38,409.89L1363.61,409.89ZM260.434,409.88L252.409,401.855L258.809,395.455L266.833,403.481L260.434,409.88ZM1320.6,401.043L1310.92,408.658C1311.34,403.714 1311.74,398.364 1312.16,393.223L1312.98,393.223L1320.6,401.043ZM1352.7,401.25L1345.09,395.072C1345.29,399.603 1345.7,404.126 1345.91,408.456L1352.7,401.25ZM237.478,393.829L245.503,401.855L239.103,408.253L231.079,400.229L237.478,393.829ZM1356.82,401.043L1365.87,408.25C1365.26,403.098 1364.85,398.364 1364.64,393.223L1364.43,393.223L1356.82,401.043ZM1324.51,401.25L1331.5,395.688C1331.29,399.809 1331.09,403.918 1330.68,407.835L1324.51,401.25ZM19.908,399.111L27.933,391.087L34.332,397.486L26.307,405.511L19.908,399.111ZM55.662,395.86L47.638,403.886L41.239,397.486L49.264,389.462L55.662,395.86ZM270.286,400.026L262.262,392.002L268.66,385.603L276.687,393.627L270.286,400.026ZM1330.48,393.223L1322.65,399.184L1316.68,393.223L1330.48,393.223ZM1346.73,393.223L1354.55,399.184L1360.52,393.223L1346.73,393.223ZM247.331,383.977L255.355,392.002L248.956,398.401L240.931,390.376L247.331,383.977ZM9.446,388.649L17.471,380.625L24.479,387.633L16.454,395.658L9.446,388.649ZM45.81,386.008L37.785,394.033L31.386,387.634L39.41,379.609L45.81,386.008ZM280.139,390.174L272.114,382.149L278.513,375.75L286.538,383.775L280.139,390.174ZM1362.78,389.103L1354.35,382.311L1347.77,389.103L1362.78,389.103ZM1314.21,389.103L1323.06,382.311L1329.24,389.103L1314.21,389.103ZM257.183,374.124L265.209,382.149L258.809,388.548L250.784,380.524L257.183,374.124ZM1352.08,380.46L1343.85,373.667C1344.06,378.813 1344.47,383.752 1344.68,388.487L1352.08,380.46ZM1324.92,380.46L1332.74,374.491C1332.54,378.813 1332.33,383.543 1331.91,387.868L1324.92,380.46ZM1321.01,380.254L1312.57,387.046L1313.8,372.43L1321.01,380.254ZM1356.41,380.254L1363.82,386.633L1362.78,373.256L1356.41,380.254ZM826.679,273.39L821.119,273.39L821.119,233.773L820.499,234.385L819.569,233.773L819.569,246.457L818.329,244.91L817.089,247.08L815.849,249.247L814.299,247.08L813.059,244.91L811.519,247.08L810.279,249.247L808.739,247.08L807.499,244.91L805.949,247.08L804.709,249.247L803.469,247.08L801.919,244.91L800.679,247.08L799.139,249.247L797.899,247.08L796.359,244.91L795.129,247.08L793.879,249.247L792.329,247.08L791.089,244.91L789.549,247.08L788.299,249.247L786.759,247.08L785.529,244.91L783.979,247.08L782.739,249.247L781.489,247.08L779.949,244.91L778.709,247.08L777.159,249.247L775.929,247.08L774.379,244.91L773.139,247.08L771.899,249.247L770.349,247.08L769.109,244.91L767.559,247.08L766.329,249.247L764.779,247.08L763.549,244.91L761.999,247.08L760.759,249.247L759.519,247.08L757.969,244.91L756.729,247.08L755.189,249.247L753.949,247.08L752.399,244.91L751.169,247.08L749.919,249.247L748.379,247.08L747.139,244.91L745.589,247.08L744.349,249.247L742.799,247.08L741.559,244.91L740.019,247.08L738.779,249.247L737.549,247.08L735.999,244.91L734.749,247.08L733.209,249.247L731.969,247.08L730.419,244.91L729.179,247.08L727.949,249.247L726.399,247.08L725.169,244.91L723.909,246.767L723.909,233.773L722.989,234.385L722.059,233.773L722.059,273.39L716.799,273.39L716.799,257.915L716.189,258.838L715.259,257.915L715.259,386.367L828.229,386.367L828.229,257.915L827.299,258.838L826.679,257.915L826.679,273.39ZM28.949,369.147L35.957,376.155L27.933,384.181L20.925,377.171L28.949,369.147ZM815.229,376.775L809.359,376.775L809.359,382.663L815.229,382.663L815.229,376.775ZM800.379,376.775L794.499,376.775L794.499,382.663L800.379,382.663L800.379,376.775ZM785.529,376.775L779.629,376.775L779.629,382.663L785.529,382.663L785.529,376.775ZM778.089,376.775L772.219,376.775L772.219,382.663L778.089,382.663L778.089,376.775ZM770.669,376.775L764.779,376.775L764.779,382.663L770.669,382.663L770.669,376.775ZM763.239,376.775L757.349,376.775L757.349,382.663L763.239,382.663L763.239,376.775ZM755.799,376.775L750.229,376.775L750.229,382.663L755.799,382.663L755.799,376.775ZM748.689,376.775L742.799,376.775L742.799,382.663L748.689,382.663L748.689,376.775ZM741.259,376.775L735.379,376.775L735.379,382.663L741.259,382.663L741.259,376.775ZM807.809,376.775L801.919,376.775L801.919,382.663L807.809,382.663L807.809,376.775ZM792.949,376.775L787.069,376.775L787.069,382.663L792.949,382.663L792.949,376.775ZM733.819,376.775L727.949,376.775L727.949,382.663L733.819,382.663L733.819,376.775ZM718.349,382.042L719.899,382.042L719.899,277.106L718.349,277.106L718.349,382.042ZM721.449,382.042L722.989,382.042L722.989,277.106L721.449,277.106L721.449,382.042ZM817.719,382.042L819.569,382.042L819.569,277.106L817.719,277.106L817.719,382.042ZM823.899,382.042L825.449,382.042L825.449,277.106L823.899,277.106L823.899,382.042ZM820.809,382.042L822.359,382.042L822.359,277.106L820.809,277.106L820.809,382.042ZM724.549,382.042L725.789,382.042L725.789,277.106L724.549,277.106L724.549,382.042ZM289.992,380.321L281.967,372.297L288.367,365.898L296.39,373.922L289.992,380.321ZM267.036,364.272L275.061,372.297L268.66,378.695L260.637,370.671L267.036,364.272ZM1346.12,372.228L1354.14,378.608L1359.91,372.228L1346.12,372.228ZM1331.09,372.228L1323.27,378.608L1317.1,372.228L1331.09,372.228ZM814.919,373.062L728.569,373.062L728.569,286.381L814.919,286.381L814.919,373.062ZM729.799,329.726L729.799,371.825L771.899,371.825C748.689,371.825 729.799,352.936 729.799,329.726ZM771.899,371.825L813.689,371.825L813.689,329.726C813.689,352.936 794.809,371.825 771.899,371.825ZM306.853,363.46L299.844,370.469L291.82,362.443L298.828,355.436L306.853,363.46ZM771.899,369.658C749.919,369.658 731.969,351.702 731.969,329.726C731.969,308.054 749.919,290.112 771.899,290.112C793.569,290.112 811.519,308.054 811.519,329.726C811.519,351.702 793.569,369.658 771.899,369.658ZM276.888,354.419L284.912,362.444L278.513,368.843L270.489,360.818L276.888,354.419ZM1360.73,368.316L1352.5,361.321L1345.29,368.316L1360.73,368.316ZM1316.68,368.316L1324.92,361.321L1331.91,368.316L1316.68,368.316ZM807.189,367.174C805.339,367.174 804.089,365.941 804.089,363.774C804.089,362.223 805.339,360.99 807.189,360.99C808.739,360.99 810.279,362.223 810.279,363.774C810.279,365.941 808.739,367.174 807.189,367.174ZM736.929,367.174C735.059,367.174 733.819,365.941 733.819,363.774C733.819,362.223 735.059,360.99 736.929,360.99C738.779,360.99 740.019,362.223 740.019,363.774C740.019,365.941 738.779,367.174 736.929,367.174ZM1323.06,359.467L1314.01,367.082L1315.24,351.436L1323.06,359.467ZM1354.14,359.467L1362.58,366.465L1361.76,351.849L1354.14,359.467ZM1350.23,359.467L1343.03,353.293L1343.24,355.971L1343.24,357.615L1343.44,366.258L1350.23,359.467ZM772.519,362.223C773.139,362.223 774.069,362.223 774.689,361.917L775.309,365.941L775.309,366.25L772.519,366.25L772.519,362.223ZM767.869,361.917C768.799,361.917 770.049,362.223 770.979,362.223L770.979,366.25C769.729,366.25 768.499,366.25 767.259,365.941L767.869,361.917ZM776.539,361.917C777.469,361.614 778.399,361.614 779.329,361.303L780.259,365.318C779.329,365.627 778.089,365.627 776.849,365.941L776.539,361.917ZM764.159,361.303C764.779,361.303 765.709,361.614 766.329,361.614L765.709,365.627C764.779,365.627 763.859,365.318 763.239,365.318L764.159,361.303ZM1327.18,359.467L1333.77,353.709L1333.57,355.971L1333.57,357.615L1333.15,365.434L1327.18,359.467ZM766.939,361.917L767.259,361.917L766.639,365.318L766.939,361.917ZM759.829,359.753C760.759,360.056 761.689,360.37 762.619,360.68L761.689,364.703C760.449,364.39 759.219,364.083 758.279,363.774L759.829,359.753ZM780.869,360.68C781.489,360.68 782.119,360.37 783.049,360.056L784.599,363.774L784.599,364.083C783.669,364.39 783.049,364.703 782.119,364.703L780.869,360.68ZM763.239,360.99L762.619,364.39L762.309,364.39L763.239,360.99ZM780.259,360.99L781.179,364.39L780.869,364.39L780.259,360.99ZM784.599,359.447C785.529,359.136 786.449,358.513 787.069,358.21L789.239,361.614L789.239,361.917C788.299,362.223 787.069,362.847 786.139,363.46L786.139,363.157L784.599,359.447ZM757.659,363.157L757.349,362.847L758.889,359.447L757.659,363.157ZM783.669,359.753L783.979,359.753L785.209,363.157L783.669,359.753ZM756.419,358.21C757.029,358.513 757.659,358.823 758.279,359.136L756.729,362.847C755.799,362.536 754.869,362.223 754.259,361.614L756.419,358.21ZM770.979,361.303C770.049,361.303 769.109,361.303 768.189,360.99L766.639,360.99C765.709,360.68 765.089,360.68 764.469,360.37C762.929,360.056 761.379,359.447 759.829,358.823L759.519,358.823C758.599,358.513 757.659,357.9 756.729,357.59L763.239,346.131C765.709,347.375 768.189,347.989 770.979,348.298L770.979,361.303ZM786.759,357.59C786.139,357.9 785.209,358.513 784.289,358.823L784.289,358.513L783.669,358.823L783.359,359.136L782.739,359.447C782.119,359.447 781.489,359.753 780.869,360.056L780.569,360.056C780.259,360.056 779.629,360.37 779.329,360.37L779.019,360.37C777.779,360.68 776.849,360.99 775.619,360.99L774.999,360.99C774.069,361.303 773.449,361.303 772.519,361.303L772.519,348.298C775.309,347.989 777.779,347.375 780.259,346.131L786.759,357.59ZM788.609,357.269C789.239,356.959 789.849,356.65 790.469,356.036L792.949,359.447C792.329,360.056 791.399,360.37 790.779,360.99L788.609,357.269ZM752.399,355.723C753.329,356.339 753.949,356.65 754.869,357.269L753.019,360.99L752.709,360.99C751.779,360.37 750.849,359.753 749.919,358.823L752.399,355.723ZM287.35,343.957L295.375,351.982L288.367,358.99L280.342,350.966L287.35,343.957ZM791.709,355.102C792.639,354.483 793.249,353.868 793.879,353.245L796.979,356.036C796.049,356.959 795.129,357.9 794.189,358.513L791.709,355.102ZM749.309,358.21L749.309,357.9L751.779,355.102L749.309,358.21ZM749.619,353.245C750.229,353.556 750.539,354.179 751.169,354.483L748.689,357.9L748.379,357.9C747.759,357.269 747.139,356.65 746.509,356.036L749.619,353.245ZM1344.88,351.436L1351.88,357.408L1358.05,351.436L1344.88,351.436ZM1332.54,351.436L1325.13,357.408L1319.37,351.436L1332.54,351.436ZM798.519,346.131C798.209,347.065 797.589,347.989 796.979,348.922L796.359,349.535L796.049,349.846C795.429,350.465 795.129,351.089 794.809,351.389L794.189,351.702L793.879,352.323L793.249,352.632L793.569,352.632C792.639,353.245 792.019,353.868 791.399,354.483L791.089,354.483L791.089,354.789L790.779,355.102C789.849,355.723 789.239,356.036 788.299,356.65L781.799,345.201C782.739,344.577 783.979,343.655 784.909,342.724C785.829,341.797 786.759,340.864 787.379,339.631L798.519,346.131ZM744.659,346.131L756.109,339.631C757.029,340.864 757.659,341.797 758.889,342.724C759.829,343.655 760.759,344.577 761.999,345.508L755.189,356.65C754.559,356.339 753.629,355.723 752.709,355.102L753.019,355.102L752.709,354.789L751.779,354.483L751.779,354.179L751.469,354.179C751.169,353.556 750.539,353.245 749.919,352.632L750.229,352.632L749.919,352.323L749.309,351.702L748.689,351.389C748.108,350.814 747.526,350.233 746.937,349.402L746.819,349.232L746.209,348.298L745.889,347.989C745.589,347.375 745.279,346.755 744.959,346.131L744.659,346.131ZM797.279,355.102L796.979,355.412L794.499,352.632L794.809,352.632L797.279,355.102ZM746.509,355.412L746.209,355.102L748.689,352.632L748.999,352.632L746.509,355.412ZM746.509,349.535C747.139,350.465 747.759,351.089 748.379,352.012L745.589,355.102L745.279,355.102C744.659,354.179 743.729,353.245 743.109,352.323L746.509,349.535ZM795.129,352.012C795.739,351.389 796.049,350.776 796.359,350.465L799.759,352.936C799.449,353.556 798.829,354.179 798.209,354.789L795.129,352.012ZM797.589,348.922C798.209,348.298 798.829,347.375 799.139,346.442L802.849,348.609C802.239,349.846 801.619,350.776 800.989,351.702L800.679,351.702L797.589,348.922ZM744.349,346.755C744.659,347.375 744.959,347.989 745.589,348.298L741.879,350.776C741.559,350.156 740.949,349.535 740.639,348.609L744.349,346.755ZM751.779,304.343C751.169,304.96 750.849,305.274 750.229,305.583L750.849,306.197C751.169,305.887 751.779,305.274 752.089,304.96L752.399,304.96L752.709,304.65C753.629,304.04 754.259,303.416 755.189,302.793L755.489,302.793L761.999,314.251C761.379,314.561 760.759,314.865 760.449,315.178L761.069,315.798C763.859,313.322 767.559,312.084 771.899,312.084C776.229,312.084 780.569,313.945 783.669,316.721L784.909,316.721C783.979,315.798 783.049,314.865 781.799,314.251L787.999,302.793L788.299,302.793C789.549,303.727 790.469,304.343 791.709,305.274L792.019,305.583C792.639,306.197 793.249,306.821 794.189,307.43C794.809,308.364 795.739,309.29 796.669,310.221L796.669,310.531L796.979,310.833C797.589,311.775 798.209,312.394 798.519,313.322L787.379,319.815C786.759,318.892 785.829,317.655 785.209,316.721L785.209,318.268C787.689,321.059 789.549,325.393 789.549,329.726C789.549,334.684 787.379,339.007 784.289,342.41C780.869,345.508 776.539,347.685 771.899,347.685C766.939,347.685 762.619,345.508 759.219,342.41C755.799,339.007 753.949,334.684 753.949,329.726C753.949,325.702 755.189,321.982 757.659,319.199L757.029,318.581C756.729,318.892 756.419,319.512 756.109,319.815L744.959,313.322C745.589,312.084 746.509,310.833 747.449,309.91L747.449,309.597C747.759,309.597 747.759,309.29 748.069,308.988L747.449,308.364C747.139,308.677 747.139,308.988 746.819,309.29L743.419,306.51C744.039,306.197 744.349,305.887 744.659,305.274L744.659,303.727L745.589,303.416C745.889,302.793 746.509,302.793 747.139,302.793C747.759,302.184 748.379,301.873 749.309,301.25L751.779,304.343ZM1358.67,347.531L1351.06,340.946L1344.47,347.531L1358.67,347.531ZM1318.54,347.531L1326.36,340.946L1332.95,347.531L1318.54,347.531ZM742.189,342.41C742.499,343.341 742.799,344.268 743.419,345.201L739.709,347.375C739.089,346.442 738.779,345.201 738.159,344.268L738.469,343.954L742.189,342.41ZM800.069,345.201C800.379,344.577 800.679,343.954 800.989,343.341L805.029,344.888C804.399,345.811 804.089,346.442 803.779,347.375L803.469,347.375L800.069,345.201ZM1324.51,338.884L1315.45,346.711L1316.48,330.661L1324.51,338.884ZM1352.7,338.884L1361.14,346.299L1360.11,331.481L1352.7,338.884ZM1348.79,338.884L1342.21,333.536L1342.21,334.976L1342.41,336.002L1342.41,341.356L1342.62,345.263L1348.79,338.884ZM744.039,344.888C743.419,343.954 743.109,343.032 742.799,341.797L742.499,341.797C742.189,340.864 741.879,339.631 741.559,338.703C741.259,338.084 741.259,337.774 741.259,337.16C740.639,334.993 740.329,332.82 740.329,330.653L753.329,330.653C753.329,333.43 754.259,335.917 755.489,338.394L744.039,344.888ZM803.159,330.653C803.159,331.583 803.159,332.507 802.849,333.43C802.849,334.684 802.539,335.917 802.239,337.16C801.619,339.941 800.679,342.41 799.449,344.888L787.999,338.394C789.239,335.917 789.849,333.43 790.159,330.653L803.159,330.653ZM1328.62,338.884L1334.39,334.15L1334.39,334.976L1334.18,336.002L1334.18,341.356L1333.98,344.645L1328.62,338.884ZM741.879,341.797L738.469,343.341L738.469,343.032L741.879,341.797ZM801.619,341.797C801.919,340.864 802.539,339.941 802.539,339.007L806.569,339.941L806.879,339.941C806.259,341.174 805.949,342.41 805.649,343.341L801.619,341.797ZM740.639,339.007C740.949,339.631 741.259,340.254 741.559,340.864L737.549,342.41L737.549,342.724C737.239,341.797 736.929,340.864 736.619,339.941L736.929,339.941L740.639,339.007ZM803.159,337.464C803.159,336.851 803.469,335.917 803.469,335.304L807.809,335.917C807.499,336.537 807.499,337.464 807.189,338.394L803.159,337.464ZM739.709,334.364C740.019,335.304 740.019,336.537 740.329,337.464L736.309,338.394C735.999,337.16 735.689,336.227 735.689,334.993L739.709,334.364ZM771.899,333.43C771.289,333.43 770.669,333.13 770.049,333.13L767.869,335.304C767.559,336.537 767.559,337.464 766.939,338.084C766.639,338.394 766.019,338.394 765.399,338.084C764.779,337.16 764.779,337.16 763.859,336.227C763.239,335.917 763.239,335.304 763.859,334.684C764.469,334.053 765.399,333.741 766.329,333.741L768.799,331.583C768.189,331.27 768.189,330.34 768.189,329.726L768.189,328.793L745.889,304.96L745.889,304.343L746.509,304.343C746.509,304.04 746.819,304.04 746.819,304.343L770.349,326.323C770.669,326.016 771.289,326.016 771.899,326.016C772.519,326.016 773.449,326.323 774.069,326.633L777.779,323.233C777.469,323.233 777.159,322.922 777.159,322.602C776.539,322.291 776.539,321.359 777.159,321.059C777.779,320.435 779.329,320.125 780.869,320.125L781.489,319.512L781.489,317.958L783.669,317.958L783.669,319.815L782.429,319.815L781.489,320.748C781.489,322.291 781.489,323.845 780.869,324.466C780.259,324.78 779.329,324.78 779.019,324.466L778.709,324.156L774.999,327.869C775.309,328.483 775.619,329.103 775.619,329.726C775.619,330.34 775.309,330.653 775.309,330.959C776.229,332.507 778.089,333.741 779.949,334.364C779.949,334.364 780.259,334.364 780.259,334.684C780.259,334.993 780.259,335.304 779.949,335.304C779.329,335.304 779.329,335.607 779.329,335.917C779.019,335.917 779.019,336.227 779.019,336.537C779.019,336.851 778.709,337.16 778.709,337.16C778.089,337.16 777.779,337.16 777.779,337.464C777.469,337.464 777.159,337.774 777.159,338.084L776.849,338.084C776.539,338.394 776.539,338.084 776.229,338.084C775.619,335.917 774.379,334.684 772.519,333.43L771.899,333.43ZM1343.03,330.661L1350.44,337.24L1357.03,330.661L1343.03,330.661ZM1334.39,330.661L1326.57,337.24L1320.39,330.661L1334.39,330.661ZM803.779,334.364L807.499,334.993L807.189,334.993L803.779,334.364ZM803.779,333.43C804.089,332.507 804.089,331.583 804.089,330.653L808.119,330.653C808.119,331.886 808.119,332.82 807.809,334.053L803.779,333.43ZM739.399,330.653C739.399,331.27 739.399,332.197 739.709,332.82L735.379,333.13L735.379,330.653L739.399,330.653ZM771.899,287.628L729.799,287.628L729.799,329.726C729.799,306.51 748.689,287.628 771.899,287.628ZM813.689,287.628L771.899,287.628C794.809,287.628 813.689,306.51 813.689,329.726L813.689,287.628ZM799.449,314.865C800.069,315.798 800.379,316.721 800.679,317.655L800.989,317.958C800.989,318.268 800.989,318.581 801.309,318.581L801.309,318.892C801.619,319.815 801.919,321.059 802.239,322.291C802.849,324.466 803.159,326.633 803.159,329.103L790.159,329.103C790.159,326.323 789.239,323.535 788.299,321.359L799.449,314.865ZM740.329,329.103C740.329,328.183 740.329,326.936 740.639,326.016L740.639,324.466C740.949,323.845 740.949,322.922 741.259,322.291C741.259,321.668 741.259,321.359 741.559,321.059L741.559,320.748C741.879,319.815 742.189,318.892 742.499,318.268L742.799,317.655L742.799,317.345C742.799,317.032 743.109,317.032 743.109,316.721C743.419,316.112 743.729,315.488 744.039,314.865L755.489,321.359C754.259,323.845 753.329,326.323 753.329,329.103L740.329,329.103ZM804.089,328.793C804.089,328.183 804.089,327.559 803.779,326.936L808.119,326.323L808.119,328.793L804.089,328.793ZM739.709,326.016C739.399,326.936 739.399,327.869 739.399,328.793L735.379,328.793C735.379,327.559 735.379,326.633 735.689,325.393L739.709,326.016ZM1359.29,326.745L1351.06,319.541L1343.85,326.745L1359.29,326.745ZM1317.92,326.745L1326.36,319.541L1333.15,326.745L1317.92,326.745ZM803.779,326.016L803.779,325.702L807.499,325.393L807.499,325.702L803.779,326.016ZM803.779,325.089C803.469,324.156 803.469,323.233 803.159,322.291L807.189,321.359L807.189,321.059C807.499,322.291 807.809,323.535 807.809,324.78L803.779,325.089ZM739.709,325.089L735.999,324.78L735.999,324.466L739.709,325.089ZM1348.79,317.898L1341.39,311.721L1341.8,314.81L1342,324.687L1348.79,317.898ZM740.329,322.291C740.019,322.922 740.019,323.535 739.709,324.466L735.689,323.845C735.999,322.922 735.999,321.982 736.309,321.059L736.309,321.359L740.329,322.291ZM1324.51,317.898L1316.68,324.277L1317.72,310.691L1324.51,317.898ZM1328.62,317.898L1335,312.128L1335,314.81L1334.59,324.069L1328.62,317.898ZM1352.7,317.898L1359.7,323.661L1359.08,311.309L1352.7,317.898ZM741.559,317.958C741.259,318.892 740.949,319.815 740.639,320.748L736.929,319.512L736.619,319.512C736.929,318.268 737.549,317.345 737.849,316.112L741.559,317.958ZM802.849,320.748C802.539,319.815 802.239,319.199 801.919,318.581L805.949,317.032C806.259,317.958 806.569,318.581 806.569,319.512L802.849,320.748ZM801.619,317.655L805.029,316.112L805.029,316.414L801.619,317.655ZM801.309,317.032C800.989,316.112 800.679,315.178 800.069,314.251L803.469,312.394L803.779,312.394C804.399,313.322 804.709,314.561 805.339,315.488L801.309,317.032ZM743.419,314.251C743.109,314.865 742.799,315.488 742.499,316.414L738.469,314.561C738.779,313.945 739.399,313.011 739.709,312.394L743.419,314.251ZM1333.77,309.867L1326.57,315.836L1320.6,309.867L1333.77,309.867ZM1343.44,309.867L1350.65,315.836L1356.62,309.867L1343.44,309.867ZM756.729,302.184C757.659,301.563 758.279,301.25 759.219,300.637L759.519,300.637L760.449,300.326C761.379,300.013 761.999,299.706 762.929,299.386L763.239,299.386L763.859,299.076L764.469,299.076C765.399,298.763 766.329,298.763 767.259,298.459L768.799,298.459L768.799,298.149L770.979,298.149L770.979,311.16C768.189,311.464 765.399,312.084 763.239,313.322L756.729,302.184ZM772.519,298.149C773.449,298.149 774.379,298.149 775.309,298.459L776.849,298.459C777.779,298.763 778.399,298.763 779.019,299.076L779.329,299.076L780.259,299.386L780.569,299.386C781.489,299.706 782.429,300.013 783.359,300.326L783.359,300.637L783.669,300.637C783.979,300.637 784.289,300.94 784.599,300.94L784.909,301.25C785.529,301.25 786.139,301.873 786.759,302.184L780.259,313.322C777.779,312.084 775.309,311.464 772.519,311.16L772.519,298.149ZM745.889,310.531C745.279,311.16 744.659,312.084 744.349,313.011L742.499,311.775L740.639,310.833C741.259,309.91 741.879,308.677 742.499,308.054L742.799,308.054L745.889,310.531ZM799.139,313.011C798.829,312.394 798.519,311.775 798.209,311.16L801.309,308.677C801.919,309.29 802.539,310.221 802.849,310.833L799.139,313.011ZM800.679,308.054L797.589,310.531L797.589,310.221L800.679,308.054ZM746.509,309.91L746.209,309.91L743.419,307.43L746.509,309.597L746.509,309.91ZM796.979,309.597C796.359,308.988 795.739,308.364 795.129,307.43L798.209,304.65C798.829,305.583 799.759,306.51 800.379,307.127L800.379,307.43L796.979,309.597ZM796.979,304.343L797.279,304.343L794.809,307.127L794.499,306.821L796.979,304.343ZM793.879,306.51C793.569,305.887 792.949,305.274 792.329,304.96L794.809,301.563C795.429,302.184 796.359,302.793 796.979,303.416L793.879,306.51ZM1358.05,305.958L1350.03,298.549L1342.41,305.958L1358.05,305.958ZM1319.37,305.958L1327.39,298.549L1335,305.958L1319.37,305.958ZM791.709,304.343L794.189,301.563L792.019,304.343L791.709,304.343ZM1325.74,297.106L1317.92,304.104L1318.54,290.111L1325.74,297.106ZM791.089,304.04C790.159,303.416 789.549,302.793 788.609,302.184L790.779,298.763C791.709,299.386 792.639,300.013 793.569,300.637L791.089,304.04ZM750.229,300.94L750.229,300.637L752.399,303.727L752.399,304.04L750.229,300.94ZM1351.46,297.106L1358.67,303.488L1358.05,290.728L1351.46,297.106ZM754.869,302.184C754.259,302.793 753.629,303.107 753.019,303.416L750.539,300.013C751.469,299.706 752.089,299.076 753.019,298.459L754.869,302.184ZM1347.97,296.901L1340.97,290.728L1341.18,294.844L1341.18,300.194L1341.39,303.283L1347.97,296.901ZM1329.24,296.901L1335.62,291.345L1335.42,294.844L1335.42,300.194L1335.21,302.666L1329.24,296.901ZM787.069,301.563C786.449,300.94 785.829,300.637 785.209,300.326L786.759,296.606C787.689,296.91 788.299,297.219 789.239,297.839L787.069,301.563ZM759.219,300.013C758.279,300.637 757.349,300.94 756.419,301.25L754.259,297.839C755.189,297.219 756.419,296.606 757.659,296.292L759.219,300.013ZM758.279,296.292L759.829,299.706L759.519,300.013L758.279,296.292ZM783.669,299.706C782.739,299.386 781.799,299.076 780.869,298.763L782.119,294.748C783.049,295.056 784.289,295.672 785.209,295.982L783.669,299.706ZM762.619,298.763C761.999,299.076 761.379,299.386 760.449,299.386L758.889,295.672C759.829,295.359 760.759,295.056 761.689,294.748L762.619,298.763ZM780.869,294.748L781.179,294.748L780.259,298.459L780.869,294.748ZM762.309,294.748L762.619,294.748L763.239,298.459L762.309,294.748ZM766.939,297.839C766.019,298.149 765.089,298.149 764.159,298.459L763.239,294.439C764.159,294.125 765.399,293.816 766.639,293.816L766.939,297.839ZM779.329,298.459C778.709,298.149 777.779,298.149 777.159,297.839L777.779,293.816C778.709,294.125 779.629,294.125 780.259,294.439L779.329,298.459ZM807.189,297.839C805.339,297.839 804.089,296.292 804.089,294.748C804.089,292.892 805.339,291.659 807.189,291.659C808.739,291.659 810.279,292.892 810.279,294.748C810.279,296.292 808.739,297.839 807.189,297.839ZM736.929,297.839C735.059,297.839 733.819,296.292 733.819,294.748C733.819,292.892 735.059,291.659 736.929,291.659C738.779,291.659 740.019,292.892 740.019,294.748C740.019,296.292 738.779,297.839 736.929,297.839ZM776.539,297.839L776.229,297.839L776.849,294.125L776.539,297.839ZM775.619,297.839C774.689,297.526 773.449,297.526 772.519,297.526L772.519,293.512L776.229,293.512L775.619,297.839ZM768.499,293.512L770.979,293.512L770.979,297.526L768.799,297.526L768.499,293.512ZM1342.41,288.874L1349.41,295.461L1356,288.874L1342.41,288.874ZM1335,288.874L1327.6,295.461L1321.01,288.874L1335,288.874ZM1357.64,284.965L1349.41,278.174L1342.62,284.965L1357.64,284.965ZM1319.77,284.965L1327.8,278.174L1334.59,284.965L1319.77,284.965ZM1347.77,276.731L1340.77,270.559L1340.77,277.761L1340.97,281.054L1340.97,283.526L1347.77,276.731ZM778.089,277.107L772.219,277.107L772.219,283.292L778.089,283.292L778.089,277.107ZM763.239,277.107L757.349,277.107L757.349,283.292L763.239,283.292L763.239,277.107ZM741.259,277.107L735.379,277.107L735.379,283.292L741.259,283.292L741.259,277.107ZM733.819,277.107L727.949,277.107L727.949,283.292L733.819,283.292L733.819,277.107ZM748.689,277.107L742.799,277.107L742.799,283.292L748.689,283.292L748.689,277.107ZM755.799,277.107L750.229,277.107L750.229,283.292L755.799,283.292L755.799,277.107ZM785.529,277.107L779.629,277.107L779.629,283.292L785.529,283.292L785.529,277.107ZM770.669,277.107L764.779,277.107L764.779,283.292L770.669,283.292L770.669,277.107ZM792.949,277.107L787.069,277.107L787.069,283.292L792.949,283.292L792.949,277.107ZM800.379,277.107L794.499,277.107L794.499,283.292L800.379,283.292L800.379,277.107ZM807.809,277.107L801.919,277.107L801.919,283.292L807.809,283.292L807.809,277.107ZM815.229,277.107L809.359,277.107L809.359,283.292L815.229,283.292L815.229,277.107ZM1329.65,276.731L1335.83,271.176L1335.83,277.761L1335.62,281.054L1335.62,283.113L1329.65,276.731ZM1326.36,276.731L1319.16,283.113L1319.57,269.94L1326.36,276.731ZM1351.06,276.731L1357.64,282.497L1357.03,270.559L1351.06,276.731ZM1340.77,268.089L1349.21,275.292L1356.41,268.089L1340.77,268.089ZM1335.83,268.501L1328,275.292L1321.01,268.089L1335.83,268.089L1335.83,268.501ZM784.599,254.822L773.139,254.822L773.139,269.986L784.599,269.986L784.599,254.822ZM815.229,254.822L804.399,254.822L804.399,269.986L815.229,269.986L815.229,254.822ZM769.109,254.822L757.659,254.822L757.659,269.986L769.109,269.986L769.109,254.822ZM753.329,254.822L742.189,254.822L742.189,269.986L753.329,269.986L753.329,254.822ZM737.849,254.822L726.709,254.822L726.709,269.986L737.849,269.986L737.849,254.822ZM800.069,254.822L788.609,254.822L788.609,269.986L800.069,269.986L800.069,254.822ZM1320.18,268.089L1319.57,269.94L1319.77,268.089L1320.18,268.089ZM1356.62,263.562L1349,256.974L1342,264.384L1356.82,264.384L1356.62,263.562ZM1319.77,263.972L1328.42,256.974L1335.42,264.384L1319.77,264.384L1319.77,263.972ZM1347.36,255.536L1340.56,249.77L1340.56,262.326L1347.36,255.536ZM1330.06,255.536L1336.03,250.183L1336.03,261.913L1330.06,255.536ZM1326.98,255.536L1320.18,261.297L1320.6,249.154L1326.98,255.536ZM1350.44,255.536L1356.62,260.885L1356,249.976L1350.44,255.536ZM830.719,254.511L827.299,251.414L824.209,254.511L827.299,258.225L830.719,254.511ZM719.279,254.511L716.189,251.414L712.789,254.511L716.189,258.225L719.279,254.511ZM1340.77,247.303L1348.79,254.092L1355.59,247.303L1340.77,247.303ZM1336.44,247.508L1328.62,254.092L1321.83,247.303L1336.44,247.303L1336.44,247.508ZM715.259,251.717L715.259,249.247L716.799,249.247L716.799,251.414L716.189,250.79L715.259,251.717ZM826.679,251.414L826.679,249.247L828.229,249.247L828.229,251.717L827.299,250.79L826.679,251.414ZM747.449,209.629L732.579,246.457L732.889,246.767L733.209,247.387L735.999,243.364L738.159,246.767L738.779,247.387L739.399,246.767L741.559,243.364L744.349,247.697L744.959,246.767L747.139,243.063L748.999,246.767L749.919,247.697L752.399,243.364L754.869,246.767L755.189,247.387L755.799,246.767L757.969,243.364L760.149,246.767L760.759,247.387L761.379,246.767L763.549,243.364L765.709,246.767L766.329,247.697L766.939,246.767L769.109,243.063L770.979,246.767L771.899,247.697L772.219,246.767L774.379,243.364L776.849,246.767L777.159,247.387L779.949,243.364L782.119,246.767L782.739,247.387L783.359,246.767L785.529,243.364L788.299,247.697L788.919,246.767L791.089,243.063L793.249,246.767L793.879,247.697L796.359,243.364L798.829,246.767L799.139,247.387L801.919,243.364L804.089,246.767L804.709,247.387L805.339,246.767L807.499,243.364L810.279,247.387L810.589,246.767L810.909,246.457L796.049,209.629L747.449,209.629ZM1355.79,243.184L1347.97,236.601L1341.18,243.39L1355.79,243.39L1355.79,243.184ZM1321.21,243.39L1329.24,236.601L1335.83,243.39L1321.21,243.39ZM1346.32,235.158L1340.36,230.013L1340.36,241.127L1346.32,235.158ZM1327.8,235.158L1321.01,240.922L1321.63,228.781L1327.8,235.158ZM1330.68,235.158L1336.44,230.425L1336.44,240.718L1330.68,235.158ZM1349.41,235.158L1355.59,240.51L1355.17,229.19L1349.41,235.158ZM752.399,234.696L749.309,229.428L748.379,228.195L744.349,234.696L745.589,235.315L748.379,230.678L750.849,235.315L752.399,234.696ZM767.559,234.696L764.779,229.428L763.859,228.195L759.829,234.696L761.069,235.315L763.859,230.678L766.329,235.315L767.559,234.696ZM783.049,234.696L780.259,229.428L779.329,228.195L775.309,234.696L776.539,235.315L779.329,230.678L782.119,235.315L783.049,234.696ZM798.829,234.696L795.429,229.428L794.809,228.195L791.089,234.696L792.019,235.315L794.809,230.678L797.589,235.315L798.829,234.696ZM726.709,230.371L722.989,227.264L719.589,230.371L722.989,234.082L726.709,230.371ZM823.899,230.371L820.499,227.264L817.089,230.371L820.499,234.082L823.899,230.371ZM1340.36,227.131L1340.97,226.309L1354.76,226.309L1347.77,233.719L1340.36,227.336L1340.36,227.131ZM1336.44,227.749L1329.65,233.719L1322.24,226.309L1336.03,226.309L1336.44,226.514L1336.44,227.749ZM722.059,227.575L722.059,225.408L723.909,225.408L723.909,227.575L722.989,226.648L722.059,227.575ZM819.569,227.575L819.569,225.408L821.119,225.408L821.119,227.575L820.499,226.648L819.569,227.575ZM791.089,222.314L787.689,216.736L787.069,215.503L783.049,222.314L784.289,222.938L787.069,218.284L789.549,222.938L791.089,222.314ZM761.689,222.314L758.889,216.736L757.969,215.503L753.949,222.314L755.189,222.938L757.969,218.284L760.449,222.938L761.689,222.314ZM775.619,222.314L772.519,216.736L771.899,215.503L767.869,222.314L769.109,222.938L771.899,218.284L774.379,222.938L775.619,222.314ZM1354.76,222.4L1347.97,215.811L1342.21,222.4L1354.76,222.4ZM1322.24,222.4L1329.24,215.811L1335.21,222.4L1322.24,222.4ZM1346.32,214.373L1340.36,208.609L1340.36,221.165L1346.32,214.373ZM1330.68,214.373L1336.44,209.022L1336.44,220.545L1330.68,214.373ZM1327.8,214.373L1321.83,220.132L1321.83,218.901L1322.24,208.195L1327.8,214.373ZM1349.41,214.373L1354.76,219.311L1354.35,208.814L1349.41,214.373ZM1340.36,205.729L1347.77,212.725L1354.14,205.729L1340.36,205.729ZM1336.44,206.14L1329.65,212.725L1323.27,205.729L1336.44,205.729L1336.44,206.14ZM797.899,178.979L796.669,181.456L795.429,183.933L795.129,183.933L794.189,181.456L792.639,178.979L791.089,181.456L790.159,183.933L788.919,181.456L787.379,178.979L784.909,183.933L782.429,178.979L780.869,181.456L779.629,183.933L778.399,181.456L777.159,178.979L775.619,181.456L774.689,183.933L774.379,183.933L771.899,178.979L770.349,181.456L769.419,183.933L769.109,183.933L767.869,181.456L766.639,178.979L765.089,181.456L764.159,183.933L763.859,183.933L761.379,178.979L759.829,181.456L758.889,183.933L758.599,183.933L757.349,181.456L755.799,178.979L753.329,183.933L752.399,181.456L750.849,178.979L749.309,181.456L748.379,183.933L748.069,183.933L747.139,181.456L745.589,178.979L744.659,180.522L744.659,169.687L743.729,170.311L742.799,169.687L742.799,207.772L800.679,207.772L800.679,169.687L799.759,170.311L798.829,169.687L798.829,180.522L797.899,178.979ZM797.589,188.58L788.919,188.58L788.919,204.055L797.589,204.055L797.589,188.58ZM754.559,188.58L745.889,188.58L745.889,204.055L754.559,204.055L754.559,188.58ZM786.759,188.58L778.089,188.58L778.089,204.055L786.759,204.055L786.759,188.58ZM776.229,188.58L767.559,188.58L767.559,204.055L776.229,204.055L776.229,188.58ZM765.399,188.58L756.729,188.58L756.729,204.055L765.399,204.055L765.399,188.58ZM1322.45,201.614L1329.65,194.617L1335.62,201.821L1322.45,201.821L1322.45,201.614ZM1354.14,200.788L1347.77,194.617L1341.8,201.821L1354.14,201.821L1354.14,200.788ZM1346.12,192.967L1340.36,187.206L1340.36,200.171L1346.12,192.967ZM1331.09,192.967L1336.44,187.618L1336.44,199.143L1331.09,192.967ZM1328,192.967L1322.65,198.73L1323.06,187.001L1328,192.967ZM1349,192.967L1353.94,197.909L1353.73,187.618L1349,192.967ZM1340.77,184.734L1347.56,191.526L1353.12,184.734L1340.77,184.734ZM1336.44,184.941L1329.86,191.526L1323.89,184.734L1336.44,184.734L1336.44,184.941ZM750.605,176.928L753.019,181.146L753.329,181.759L755.799,176.812L758.279,181.146L758.599,181.759L758.889,181.146L761.379,176.812L763.859,181.759L764.159,181.146L766.639,176.812L769.109,181.759L769.419,181.146L771.899,176.812L774.069,181.146L774.379,181.759L774.689,181.146L777.159,176.812L779.629,181.759L779.949,181.146L782.429,176.812L784.909,181.759L785.209,181.146L787.689,176.812L789.549,181.146L790.159,181.759L790.469,181.146L792.639,176.812C793.249,175.886 773.759,125.43 772.519,116.768L770.669,116.768C767.27,138.06 757.412,156.882 750.605,176.928ZM1353.32,180.413L1347.36,174.031L1340.97,180.825L1353.32,180.825L1353.32,180.413ZM1323.48,180.825L1330.06,174.031L1336.03,180.825L1323.48,180.825ZM1345.7,172.388L1340.36,166.829L1340.36,178.357L1345.7,172.388ZM1328.62,172.592L1323.48,178.15L1323.68,167.037L1328.62,172.592ZM1331.5,172.388L1336.44,167.243L1336.44,177.736L1331.5,172.388ZM1348.59,172.592L1353.12,177.531L1352.91,167.86L1348.59,172.592ZM750.605,176.928L750.539,176.812L750.539,177.122L750.605,176.928ZM763.859,172.485L761.069,166.908L760.149,165.674L756.109,172.485L757.349,173.109L760.149,168.144L762.619,173.109L763.859,172.485ZM787.379,172.485L784.289,166.908L783.359,165.674L779.329,172.485L780.869,173.109L783.359,168.144L786.139,173.109L787.379,172.485ZM775.619,172.485L772.519,166.908L771.899,165.674L767.869,172.485L769.109,173.109L771.899,168.144L774.379,173.109L775.619,172.485ZM1336.44,164.565L1330.27,170.947L1323.89,164.155L1336.44,164.155L1336.44,164.565ZM1340.36,164.155L1347.14,170.947L1352.91,164.361L1352.91,164.155L1340.36,164.155ZM747.139,165.674L743.729,162.27L740.329,165.674L743.729,169.075L747.139,165.674ZM803.159,165.674L799.759,162.27L796.359,165.674L799.759,169.075L803.159,165.674ZM742.799,161.96L742.799,159.783L744.659,159.783L744.659,161.96L743.729,161.037L742.799,161.96ZM798.829,161.96L798.829,159.783L800.679,159.783L800.679,161.96L799.759,161.037L798.829,161.96ZM768.799,159.783L765.709,154.213L764.779,152.979L761.069,159.783L762.309,160.407L764.779,155.46L767.559,160.407L768.799,159.783ZM782.429,159.783L779.329,154.213L778.709,152.979L774.689,159.783L775.619,160.407L778.709,155.46L781.179,160.407L782.429,159.783ZM1350.44,160.04L1346.53,156.542L1342.62,160.04L1350.44,160.04ZM1329.65,155.512L1323.89,160.04L1324.3,150.775L1329.65,155.512ZM1326.57,160.04L1330.68,156.542L1334.39,160.04L1326.57,160.04ZM1344.88,155.305L1340.36,151.392L1340.36,159.423L1344.88,155.305ZM1347.77,155.512L1352.7,159.423L1352.5,151.187L1347.77,155.512ZM1332.33,155.305L1336.44,152.012L1336.44,159.007L1332.33,155.305ZM1341.18,149.953L1346.32,154.07L1351.06,149.953L1341.18,149.953ZM1336.03,149.953L1331.09,154.07L1326.15,149.953L1336.03,149.953ZM775.619,145.858L772.519,140.908L771.899,139.365L767.869,145.858L769.109,146.782L771.899,142.144L774.379,146.782L775.619,145.858ZM776.229,115.835L767.259,115.835L767.259,109.335L776.229,109.335L776.229,115.835ZM771.899,105.62C771.899,106.551 771.589,107.477 771.589,108.411L771.899,108.411L771.899,105.62Z"/>
    </g>
</svg>
