<?xml version="1.0" encoding="UTF-8" standalone="no"?>
<!DOCTYPE svg PUBLIC "-//W3C//DTD SVG 1.1//EN" "http://www.w3.org/Graphics/SVG/1.1/DTD/svg11.dtd">
<svg width="100%" height="100%" viewBox="0 0 2145 640" version="1.1" xmlns="http://www.w3.org/2000/svg" xmlns:xlink="http://www.w3.org/1999/xlink" xml:space="preserve" xmlns:serif="http://www.serif.com/" style="fill-rule:evenodd;clip-rule:evenodd;stroke-linejoin:round;stroke-miterlimit:2;">
    <g>
        <path d="M711.592,574.793C707.129,585.471 701.801,594.467 695.403,601.912C677.686,622.45 645.309,629.487 604.639,631.605C545.983,634.701 470.066,627.55 396.063,636C349.041,641.374 314.088,640.759 288.654,636.296C191.559,619.285 233.571,546.284 274.901,536.469C330.62,523.263 333.147,603.484 333.147,534.67C333.147,504.158 357.124,436.894 406.581,442.427C456.63,448.006 451.417,499.923 451.303,528.91C451.372,522.169 453.989,480.705 505.587,474.854C578.659,466.587 551.948,545.418 562.446,545.418C591.478,508.462 660.677,503.657 693.626,532.075C704.625,541.547 720.267,554.071 711.592,574.793ZM1995.56,391.804C1995.56,392.098 1995.56,392.387 1995.56,392.672C1995.56,392.69 1995.55,392.378 1995.56,391.804C1995.67,375.73 1998.36,347.434 1970.29,344.364C1942.34,341.306 1928.79,378.485 1928.79,395.342C1928.79,433.377 1927.36,389.035 1895.88,396.34C1866.41,403.181 1836.34,465.648 1964.35,451.352C2035.13,443.447 2109.03,460.236 2133.48,432.504C2137.1,428.398 2140.11,423.422 2142.63,417.526C2147.54,406.067 2138.7,399.151 2132.49,393.91C2113.86,378.205 2074.76,380.857 2058.36,401.281C2052.43,401.281 2067.52,357.723 2026.23,362.287C1997.89,365.423 1995.7,387.169 1995.56,391.804ZM998.224,193.618C1022.59,211.295 1030.54,231.506 1026.5,263.176C1041.89,266.177 1042.27,256.641 1050.06,241.034C1063.5,212.915 1053.3,229.625 1107.54,206.303C1118.47,201.562 1128.97,197.606 1139.5,192.849C1140.43,199.648 1141.3,208.039 1141.01,215.191L1143.23,259.446C1143.33,267.009 1143.81,274.987 1144.72,282.188C1147.15,281.09 1159.67,276.413 1161.3,275.284C1165.03,271.456 1183.21,194.183 1186.04,183.554C1188.42,173.696 1186.02,173.998 1195.3,170.392C1218.34,161.357 1253.73,152.01 1259.66,132.75C1261.98,124.88 1251.7,122.884 1245.36,122.237C1231.89,120.908 1192.16,139.232 1177.22,145.008C1166.28,139.795 1111.52,105.796 1094.43,95.166C1086.68,90.087 1088.27,90.149 1081.38,93.058C1076.93,94.873 1073.7,96.34 1069.64,98.166C1079.76,114.085 1122.75,153.588 1127.47,165.318C1113.23,173.108 1083.01,182.652 1064.3,192.66C1043.59,203.373 1054.42,201.418 1032.05,193.368C1006.52,184.797 1009.76,183.731 998.224,193.618ZM210.687,145.124C218.18,143.712 226.142,143.27 234.494,143.998C276.453,147.653 318.415,198.268 318.409,198.055C317.953,177.366 312.749,139.375 350.235,134.476C386.884,129.681 405.763,177.654 406.247,199.586C407.34,249.071 407.938,191.342 449.52,199.929C488.445,207.97 529.761,288.348 361.123,273.49C267.874,265.269 252.343,287.458 195.704,280.987C111.606,271.4 132.77,171.195 198.771,148.293L195.126,146.285C189.288,142.873 193.995,134.694 199.837,137.717L208.414,142.427C209.626,143.098 210.353,144.065 210.687,145.124ZM695.935,270.772C702.3,270.628 702.707,280.588 695.939,280.719L686.382,280.745C680.016,280.888 679.218,270.906 686.382,270.789L695.935,270.772ZM647.027,270.029C650.202,270.155 653.377,270.281 656.949,270.422C663.707,270.688 662.526,280.594 656.555,280.359C653.38,280.234 649.808,280.091 646.634,279.966C639.885,279.298 640.665,269.776 647.027,270.029ZM735.364,269.952C741.732,269.804 742.151,279.368 735.786,279.515L725.811,279.915C719.018,280.441 719.014,270.495 725.397,270.35L735.364,269.952ZM617.656,268.067C623.988,268.72 623.611,278.259 616.869,277.991L606.946,277.193C600.98,276.957 600.975,267.01 607.736,267.279L617.656,268.067ZM764.482,267.917C768.064,268.059 771.254,267.787 774.444,267.517C781.243,266.99 781.246,276.936 775.26,277.095C772.071,277.374 768.487,277.63 765.287,277.903C758.495,278.426 758.498,268.475 764.482,267.917ZM578.401,264.527C585.519,265.605 583.545,275.073 577.61,274.439L567.705,273.255C560.994,272.191 562.576,262.308 568.894,263.357L578.401,264.527ZM813.61,263.495C819.608,262.54 821.212,272.161 814.816,273.099L804.817,274.294C798.819,275.246 796.813,265.622 803.61,264.697L813.61,263.495ZM852.419,257.88C858.833,256.934 860.026,266.931 854.006,267.886L844.027,269.08C837.617,270.02 836.401,260.424 842.815,259.486L852.419,257.88ZM539.606,259.404C545.956,260.053 544.762,269.958 538.034,268.899L528.558,267.321C522.221,266.275 523.391,256.774 530.128,257.837L539.606,259.404ZM890.88,251.435C896.898,250.084 899.707,259.347 892.884,261.072L883.269,262.677C876.455,263.999 875.259,254.005 881.262,253.048L890.88,251.435ZM491.423,250.331C494.582,250.855 497.726,251.78 501.295,252.32C507.992,253.778 504.843,263.201 499.314,262.189C495.76,261.251 492.601,260.729 489.458,259.809C482.741,258.351 485.518,248.903 491.423,250.331ZM929.389,243.413C935.819,242.078 938.235,251.325 931.801,253.057L921.777,255.05C915.758,256.401 913.325,247.156 919.77,245.426L929.389,243.413ZM967.565,234.187C974.386,232.464 975.992,242.479 969.964,243.831L960.325,246.228C953.9,247.573 951.895,237.938 957.914,236.588L967.565,234.187ZM998.934,235.826C991.706,237.527 990.5,227.934 996.117,226.557L1005.39,223.744C1012.2,222.426 1014.22,231.652 1008.19,233.404L998.934,235.826ZM1830.66,165.817C1827.4,173.624 1823.51,180.199 1818.83,185.642C1805.88,200.656 1782.21,205.798 1752.48,207.347C1709.6,209.61 1654.11,204.384 1600.01,210.56C1565.64,214.488 1540.09,214.039 1521.49,210.776C1450.52,198.341 1481.23,144.976 1511.44,137.804C1552.17,128.148 1554.02,186.79 1554.02,136.488C1554.02,114.184 1571.55,65.011 1607.7,69.056C1644.29,73.135 1640.47,111.087 1640.39,132.276C1640.44,127.349 1642.36,97.039 1680.07,92.761C1733.49,86.719 1713.96,144.344 1721.64,144.344C1742.86,117.328 1793.45,113.816 1817.53,134.591C1825.57,141.514 1837.01,150.669 1830.66,165.817ZM174.564,122.786C180.02,125.784 175.298,134.35 169.456,131.337L160.912,125.825C155.865,122.841 160.173,114.257 166.016,117.67L174.564,122.786ZM141.19,101.566C146.984,105.78 140.719,113.488 136.078,110.118L127.538,104.609C122.14,100.415 128.008,92.692 133.041,96.471L141.19,101.566ZM109.033,79.609C114.054,83.383 108.56,91.522 103.131,87.728L95.004,82.233C89.985,78.447 95.478,70.313 100.892,74.109L109.033,79.609ZM76.927,56.442C82.343,60.241 76.856,68.379 71.025,64.572L63.312,58.692C58.278,54.91 63.786,46.771 69.202,50.574L76.927,56.442ZM46.037,32.543C51.429,37.131 44.768,44.429 39.761,40.255L32.059,33.981C27.045,29.796 33.712,22.502 38.312,26.665L46.037,32.543ZM15.577,7.859C20.593,12.041 14.329,19.349 9.321,15.168L1.603,8.894C-2.997,4.738 3.269,-2.975 8.286,1.206L15.577,7.859Z" style="fill-opacity:0.5;"/>
    </g>
</svg>
