<svg width="1000" height="800" viewBox="0 0 1000 800" fill="none" xmlns="http://www.w3.org/2000/svg">
<mask id="mask0_269_393" style="mask-type:alpha" maskUnits="userSpaceOnUse" x="0" y="0" width="1000" height="800">
<rect width="1000" height="800" fill="#D9D9D9"/>
</mask>
<g mask="url(#mask0_269_393)">
<path fill-rule="evenodd" clip-rule="evenodd" d="M933.922 741.58C933.974 740.56 934 739.533 934 738.5C934 705.639 907.361 679 874.5 679C845.996 679 822.173 699.044 816.357 725.806C812.099 723.999 807.416 723 802.5 723C782.894 723 767 738.894 767 758.5C767 758.751 767.003 759.002 767.008 759.251C756.559 762.623 749 772.429 749 784C749 798.359 760.641 810 775 810H993C1007.36 810 1019 798.359 1019 784C1019 769.641 1007.36 758 993 758H965.994C965.729 746.909 956.655 738 945.5 738C941.204 738 937.216 739.322 933.922 741.58Z" fill="white" fill-opacity="0.3"/>
<path fill-rule="evenodd" clip-rule="evenodd" d="M378.922 741.58C378.974 740.56 379 739.533 379 738.5C379 705.639 352.361 679 319.5 679C290.996 679 267.173 699.044 261.357 725.806C257.099 723.999 252.416 723 247.5 723C227.894 723 212 738.894 212 758.5C212 758.751 212.003 759.002 212.008 759.251C201.559 762.623 194 772.429 194 784C194 798.359 205.641 810 220 810H438C452.359 810 464 798.359 464 784C464 769.641 452.359 758 438 758H410.994C410.729 746.909 401.655 738 390.5 738C386.204 738 382.216 739.322 378.922 741.58Z" fill="white" fill-opacity="0.3"/>
<path fill-rule="evenodd" clip-rule="evenodd" d="M1.06716 716.719C-9.56886 703.611 -27.5208 695 -47.875 695C-80.5288 695 -107 717.162 -107 744.5C-107 755.117 -103.007 764.953 -96.2108 773.014C-97.7688 776.351 -98.6389 780.074 -98.6389 784C-98.6389 798.359 -86.9983 810 -72.6389 810H168C182.359 810 194 798.359 194 784C194 769.641 182.359 758 168 758H146.869C144.261 742.735 128.58 731 109.625 731C101.856 731 94.6363 732.972 88.6418 736.35C80.8021 718.63 60.4336 706 36.5417 706C23.0538 706 10.6889 710.025 1.06716 716.719Z" fill="white" fill-opacity="0.3"/>
<path fill-rule="evenodd" clip-rule="evenodd" d="M561.195 716.719C550.842 703.611 533.367 695 513.554 695C481.768 695 456 717.162 456 744.5C456 755.139 459.903 764.994 466.544 773.064C465 776.389 464.139 780.094 464.139 784C464.139 798.359 475.779 810 490.139 810H723C737.359 810 749 798.359 749 784C749 769.641 737.359 758 723 758H703.122C700.583 742.735 685.319 731 666.868 731C659.305 731 652.277 732.972 646.442 736.35C638.811 718.63 618.984 706 595.727 706C582.597 706 570.561 710.025 561.195 716.719Z" fill="white" fill-opacity="0.3"/>
<path d="M-30 218.474C-30 218.474 185.5 327.974 323.5 353.974C461.5 379.974 665 349.474 545 218.474C425 87.4738 212.7 -111.726 323.5 139.474C462 453.474 568 720.974 607.5 406.974C639.1 155.774 871.667 123.974 984 139.474" stroke="black" stroke-opacity="0.2" stroke-width="4" stroke-linejoin="round" stroke-dasharray="16 16"/>
<path fill-rule="evenodd" clip-rule="evenodd" d="M108.922 447.58C108.974 446.56 109 445.533 109 444.5C109 411.639 82.3609 385 49.5 385C20.9955 385 -2.82741 405.044 -8.64298 431.806C-12.9005 429.999 -17.5835 429 -22.5 429C-42.1061 429 -58 444.894 -58 464.5C-58 464.751 -57.9974 465.002 -57.9922 465.251C-68.4413 468.623 -76 478.429 -76 490C-76 504.359 -64.3594 516 -50 516H168C182.359 516 194 504.359 194 490C194 475.641 182.359 464 168 464H140.994C140.729 452.909 131.655 444 120.5 444C116.204 444 112.216 445.322 108.922 447.58Z" fill="black" fill-opacity="0.2"/>
<path fill-rule="evenodd" clip-rule="evenodd" d="M949.922 547.58C949.974 546.56 950 545.533 950 544.5C950 511.639 923.361 485 890.5 485C861.996 485 838.173 505.044 832.357 531.806C828.099 529.999 823.416 529 818.5 529C798.894 529 783 544.894 783 564.5C783 564.751 783.003 565.002 783.008 565.251C772.559 568.623 765 578.429 765 590C765 604.359 776.641 616 791 616H1009C1023.36 616 1035 604.359 1035 590C1035 575.641 1023.36 564 1009 564H981.994C981.729 552.909 972.655 544 961.5 544C957.204 544 953.216 545.322 949.922 547.58Z" fill="white" fill-opacity="0.3"/>
<path fill-rule="evenodd" clip-rule="evenodd" d="M965.415 201.814C956.865 186.983 940.848 177 922.5 177C895.162 177 873 199.162 873 226.5C873 231.429 873.72 236.189 875.061 240.681C863.564 243.368 855 253.684 855 266C855 280.359 866.641 292 881 292H1099C1113.36 292 1125 280.359 1125 266C1125 251.641 1113.36 240 1099 240H1095.81C1094.07 224.25 1080.71 212 1064.5 212C1058.62 212 1053.12 213.609 1048.41 216.412C1043.09 196.591 1025 182 1003.5 182C987.748 182 973.826 189.832 965.415 201.814Z" fill="black" fill-opacity="0.2"/>
<path fill-rule="evenodd" clip-rule="evenodd" d="M29.1949 116.719C18.8416 103.611 1.36678 95 -18.4464 95C-50.2324 95 -76 117.162 -76 144.5C-76 155.139 -72.0975 164.994 -65.4564 173.064C-66.9997 176.389 -67.8612 180.094 -67.8612 184C-67.8612 198.359 -56.2206 210 -41.8612 210H191C205.359 210 217 198.359 217 184C217 169.641 205.359 158 191 158H171.122C168.583 142.735 153.319 131 134.868 131C127.305 131 120.277 132.972 114.442 136.35C106.811 118.63 86.9835 106 63.7266 106C50.5973 106 38.561 110.025 29.1949 116.719Z" fill="white" fill-opacity="0.3"/>
</g>
</svg>
