<svg width="85" height="110" viewBox="0 0 85 110" fill="none" xmlns="http://www.w3.org/2000/svg">
<path d="M74.7066 25.4607H70.0375V16.0674H60.6991V25.4607H23.3458V16.0674H14.0075V25.4607H9.33833C4.15556 25.4607 0 29.6876 0 34.8539V100.607C0 105.82 4.20225 110 9.33833 110H74.7066C79.8894 110 84.045 105.82 84.045 100.607V34.8539C84.045 29.6876 79.8894 25.4607 74.7066 25.4607ZM74.7066 100.607H9.33833V53.6404H74.7066V100.607ZM74.7066 44.2472H9.33833V34.8539H74.7066V44.2472Z" fill="#D4E0FF"/>
<path d="M24.6899 89.0093H59.4283V92.6966H24.6899V89.0093ZM60.4704 71.7528C60.0865 70.2778 58.569 69.3929 57.1063 69.7985L47.3978 72.4165L34.7457 60.5618L31.2536 61.5021L38.8229 74.721L29.7361 77.1731L26.1342 74.3339L23.4832 75.0529L26.8107 80.8788L28.2186 83.3309L31.1439 82.5566L40.8524 79.9201L48.8056 77.7815L58.5141 75.1819C59.9951 74.7395 60.8544 73.2277 60.4704 71.7528Z" fill="#2962FF"/>
<path d="M42.0225 0C33.1854 0 25.9551 7.23034 25.9551 16.0674C25.9551 24.9045 33.1854 32.1348 42.0225 32.1348C50.8596 32.1348 58.0899 24.9045 58.0899 16.0674C58.0899 7.23034 50.8596 0 42.0225 0ZM45.236 24.1011L40.4158 15.7461V8.03371H42.8259V15.1034L47.3247 22.9764L45.236 24.1011Z" fill="#FFED29"/>
</svg>
