<svg width="100" height="93" viewBox="0 0 100 93" fill="none" xmlns="http://www.w3.org/2000/svg">
<path d="M50 3.50877C77.5 3.50877 100 21.3041 100 43.2749C100 65.2456 77.5 83.0409 50 83.0409C43.8 83.0409 37.85 82.1462 32.35 80.5556C17.75 92.9825 0 92.9825 0 92.9825C11.65 81.4006 13.5 73.5965 13.75 70.614C5.25 63.5059 0 53.8626 0 43.2749C0 21.3041 22.5 3.50877 50 3.50877Z" fill="#D4E0FF"/>
<path d="M40.0664 29.1813H71.9299V33.6257H40.0664V29.1813ZM40.0664 46.9591V42.5146H71.9299V46.9591H40.0664ZM33.2385 28.0702C34.144 28.0702 35.0123 28.4214 35.6525 29.0465C36.2928 29.6716 36.6525 30.5195 36.6525 31.4035C36.6525 32.2876 36.2928 33.1354 35.6525 33.7605C35.0123 34.3857 34.144 34.7368 33.2385 34.7368C32.3331 34.7368 31.4647 34.3857 30.8245 33.7605C30.1843 33.1354 29.8246 32.2876 29.8246 31.4035C29.8246 30.5195 30.1843 29.6716 30.8245 29.0465C31.4647 28.4214 32.3331 28.0702 33.2385 28.0702ZM33.2385 41.4035C34.144 41.4035 35.0123 41.7547 35.6525 42.3798C36.2928 43.0049 36.6525 43.8528 36.6525 44.7368C36.6525 45.6209 36.2928 46.4687 35.6525 47.0939C35.0123 47.719 34.144 48.0702 33.2385 48.0702C32.3331 48.0702 31.4647 47.719 30.8245 47.0939C30.1843 46.4687 29.8246 45.6209 29.8246 44.7368C29.8246 43.8528 30.1843 43.0049 30.8245 42.3798C31.4647 41.7547 32.3331 41.4035 33.2385 41.4035ZM40.0664 60.2924V55.848H71.9299V60.2924H40.0664ZM33.2385 54.7368C34.144 54.7368 35.0123 55.088 35.6525 55.7132C36.2928 56.3383 36.6525 57.1861 36.6525 58.0702C36.6525 58.9542 36.2928 59.8021 35.6525 60.4272C35.0123 61.0523 34.144 61.4035 33.2385 61.4035C32.3331 61.4035 31.4647 61.0523 30.8245 60.4272C30.1843 59.8021 29.8246 58.9542 29.8246 58.0702C29.8246 57.1861 30.1843 56.3383 30.8245 55.7132C31.4647 55.088 32.3331 54.7368 33.2385 54.7368Z" fill="#2962FF"/>
<path d="M78.9473 0C80.3297 0 81.6985 0.272271 82.9756 0.801268C84.2527 1.33027 85.4131 2.10563 86.3906 3.08309C87.368 4.06055 88.1434 5.22096 88.6724 6.49807C89.2014 7.77518 89.4737 9.14398 89.4737 10.5263C89.4737 13.3181 88.3646 15.9955 86.3906 17.9695C84.4165 19.9436 81.7391 21.0526 78.9473 21.0526C77.565 21.0526 76.1962 20.7804 74.9191 20.2514C73.642 19.7224 72.4816 18.947 71.5041 17.9695C69.53 15.9955 68.421 13.3181 68.421 10.5263C68.421 7.73456 69.53 5.05715 71.5041 3.08309C73.4782 1.10902 76.1556 0 78.9473 0Z" fill="#FFED29"/>
</svg>
