<svg width="110" height="114" viewBox="0 0 110 114" fill="none" xmlns="http://www.w3.org/2000/svg">
<path d="M40.8571 0C51.6931 0 62.0853 4.44571 69.7475 12.3591C77.4097 20.2726 81.7143 31.0055 81.7143 42.1967C81.7143 52.6485 78.0057 62.2564 71.9086 69.6571L73.6057 71.4098H78.5714L110 103.869L100.571 113.607L69.1429 81.1475V76.019L67.4457 74.2662C60.28 80.5633 50.9771 84.3934 40.8571 84.3934C30.0212 84.3934 19.629 79.9477 11.9668 72.0343C4.30458 64.1209 0 53.388 0 42.1967C0 31.0055 4.30458 20.2726 11.9668 12.3591C19.629 4.44571 30.0212 0 40.8571 0ZM40.8571 12.9836C25.1429 12.9836 12.5714 25.9672 12.5714 42.1967C12.5714 58.4262 25.1429 71.4098 40.8571 71.4098C56.5714 71.4098 69.1429 58.4262 69.1429 42.1967C69.1429 25.9672 56.5714 12.9836 40.8571 12.9836Z" fill="#D4E0FF"/>
<path d="M41.4799 21.6393C40.5783 21.6393 39.6766 21.982 38.9373 22.7033L24.5111 37.1295C23.0865 38.5361 23.0865 40.8082 24.5111 42.2148L38.9373 56.641C40.3439 58.0656 42.616 58.0656 44.0225 56.641L58.4488 42.2148C59.8734 40.8082 59.8734 38.5361 58.4488 37.1295L44.0225 22.7033C43.2832 21.982 42.3816 21.6393 41.4799 21.6393ZM41.4799 30.5656C46.3488 30.7639 48.4586 35.6689 45.5914 39.3295C44.834 40.2311 43.6258 40.8262 43.0127 41.6016C42.3816 42.377 42.3816 43.2787 42.3816 44.1803H39.6766C39.6766 42.6475 39.6766 41.3672 40.3078 40.4656C40.9029 39.5639 42.1111 39.0229 42.8684 38.4279C45.0865 36.3902 44.5094 33.5229 41.4799 33.2885C40.0012 33.2885 38.775 34.4967 38.775 36.0115H36.0701C36.0701 33 38.5045 30.5656 41.4799 30.5656ZM39.6766 45.9836H42.3816V48.6885H39.6766V45.9836Z" fill="#2962FF"/>
<path d="M48.6885 102.787C48.6885 101.83 49.0685 100.913 49.7449 100.237C50.4212 99.5603 51.3386 99.1803 52.2951 99.1803C53.2516 99.1803 54.169 99.5603 54.8453 100.237C55.5217 100.913 55.9017 101.83 55.9017 102.787C55.9017 103.743 55.5217 104.661 54.8453 105.337C54.169 106.013 53.2516 106.393 52.2951 106.393C51.3386 106.393 50.4212 106.013 49.7449 105.337C49.0685 104.661 48.6885 103.743 48.6885 102.787ZM37.8689 102.787C37.8689 101.83 38.2488 100.913 38.9252 100.237C39.6016 99.5603 40.5189 99.1803 41.4754 99.1803C42.4319 99.1803 43.3493 99.5603 44.0256 100.237C44.702 100.913 45.082 101.83 45.082 102.787C45.082 103.743 44.702 104.661 44.0256 105.337C43.3493 106.013 42.4319 106.393 41.4754 106.393C40.5189 106.393 39.6016 106.013 38.9252 105.337C38.2488 104.661 37.8689 103.743 37.8689 102.787ZM27.0492 102.787C27.0492 101.83 27.4292 100.913 28.1055 100.237C28.7819 99.5603 29.6992 99.1803 30.6558 99.1803C31.6123 99.1803 32.5296 99.5603 33.206 100.237C33.8823 100.913 34.2623 101.83 34.2623 102.787C34.2623 103.743 33.8823 104.661 33.206 105.337C32.5296 106.013 31.6123 106.393 30.6558 106.393C29.6992 106.393 28.7819 106.013 28.1055 105.337C27.4292 104.661 27.0492 103.743 27.0492 102.787Z" fill="#FFED29"/>
</svg>
