<svg width="100" height="112" viewBox="0 0 100 112" fill="none" xmlns="http://www.w3.org/2000/svg">
<path d="M85.588 92.9044L84.7766 97.5174L2.43405 83.0345L3.24542 78.4215L14.0173 70.8046L18.8855 43.1265C21.4008 28.8261 32.9022 17.8659 47.2028 16.1961C47.2839 15.7348 47.3569 15.3196 47.4381 14.8583C47.8684 12.4114 49.2451 10.2343 51.2652 8.80583C53.2854 7.3774 55.7835 6.81468 58.21 7.24147C60.6365 7.66826 62.7926 9.0496 64.2041 11.0816C65.6156 13.1136 66.1668 15.6298 65.7364 18.0767C65.6553 18.538 65.5822 18.9532 65.5011 19.4145C78.3736 25.8637 85.445 40.0906 82.9298 54.391L78.0615 82.0691L85.588 92.9044ZM51.9431 96.4982C51.5128 98.9451 50.1361 101.122 48.1159 102.551C46.0958 103.979 43.5977 104.542 41.1712 104.115C38.7447 103.688 36.5885 102.307 35.1771 100.275C33.7656 98.2429 33.2144 95.7267 33.6448 93.2798" fill="#D4E0FF"/>
<path d="M86.7212 32.6229H83.7704V23.7705H86.7212M86.7212 38.5246H83.7704V35.5738H86.7212M85.2458 16.3934C83.3083 16.3934 81.3897 16.7751 79.5996 17.5165C77.8096 18.258 76.1831 19.3448 74.8131 20.7148C72.0461 23.4817 70.4917 27.2345 70.4917 31.1475C70.4917 35.0606 72.0461 38.8133 74.8131 41.5802C76.1831 42.9503 77.8096 44.0371 79.5996 44.7785C81.3897 45.52 83.3083 45.9016 85.2458 45.9016C89.1588 45.9016 92.9116 44.3472 95.6785 41.5802C98.4454 38.8133 99.9999 35.0606 99.9999 31.1475C99.9999 29.21 99.6183 27.2914 98.8768 25.5014C98.1353 23.7113 97.0486 22.0849 95.6785 20.7148C94.3085 19.3448 92.682 18.258 90.8919 17.5165C89.1019 16.7751 87.1833 16.3934 85.2458 16.3934Z" fill="#FFED29"/>
<path d="M26.5109 37.499L27.3922 43.0965L32.463 45.6921L29.9059 50.7675L32.4775 55.8429L27.3633 58.4386L26.482 64.036L20.8622 63.1514L16.8604 67.1537L12.8441 63.0934L7.26763 64.0215L6.37193 58.3806L1.32996 55.7994L3.90151 50.724L1.3444 45.6921L6.41527 43.0675L7.29653 37.5135L12.8875 38.4416L16.9037 34.3668L20.9055 38.3836L26.5109 37.499ZM13.292 43.517C12.7173 43.517 12.1661 43.7462 11.7597 44.1541C11.3533 44.562 11.125 45.1153 11.125 45.6921C11.125 46.269 11.3533 46.8223 11.7597 47.2302C12.1661 47.6381 12.7173 47.8673 13.292 47.8673C13.8667 47.8673 14.4179 47.6381 14.8243 47.2302C15.2307 46.8223 15.459 46.269 15.459 45.6921C15.459 45.1153 15.2307 44.562 14.8243 44.1541C14.4179 43.7462 13.8667 43.517 13.292 43.517ZM20.5154 53.6677C19.9407 53.6677 19.3895 53.8969 18.9831 54.3048C18.5767 54.7127 18.3484 55.266 18.3484 55.8429C18.3484 56.4198 18.5767 56.973 18.9831 57.3809C19.3895 57.7889 19.9407 58.018 20.5154 58.018C21.0902 58.018 21.6414 57.7889 22.0478 57.3809C22.4542 56.973 22.6825 56.4198 22.6825 55.8429C22.6825 55.266 22.4542 54.7127 22.0478 54.3048C21.6414 53.8969 21.0902 53.6677 20.5154 53.6677ZM11.7173 58.018L24.1272 45.5616L22.0902 43.517L9.68027 55.9734L11.7173 58.018Z" fill="#2962FF"/>
</svg>
