<svg width="128" height="110" viewBox="0 0 128 110" fill="none" xmlns="http://www.w3.org/2000/svg">
<path d="M110 77C110 79.9174 108.841 82.7153 106.778 84.7782C104.715 86.8411 101.917 88 99 88H33C26.895 88 22 83.05 22 77V11C22 4.89501 26.895 1.52588e-05 33 1.52588e-05H99C101.917 1.52588e-05 104.715 1.15894 106.778 3.22184C108.841 5.28474 110 8.08263 110 11V77ZM77 99V110H11C8.08262 110 5.28472 108.841 3.22182 106.778C1.15892 104.715 0 101.917 0 99V27.5H11V99H77Z" fill="#D4E0FF"/>
<path d="M78.9105 32.0592C80.6184 33.7671 80.6184 36.5171 78.9105 38.196L67.65 49.4566L73.7868 76.0592L69.7052 80.1697L58.4737 58.6618L47.1842 69.9513L48.2263 77.1013L45.1289 80.1697L40.0342 70.9645L30.8 65.8408L33.8684 62.7145L41.1052 63.7855L52.3079 52.5829L30.8 41.2645L34.9105 37.1829L61.5131 43.3197L72.7737 32.0592C74.3947 30.3803 77.2894 30.3803 78.9105 32.0592Z" fill="#2962FF"/>
<path d="M126.497 17.9146L109.667 1.0846C108.965 0.389109 108.018 -0.000786941 107.03 1.19252e-06H93.94C92.948 1.19252e-06 91.9968 0.394036 91.2954 1.09542C90.594 1.79681 90.2 2.74809 90.2 3.74V16.83C90.2041 17.8203 90.6009 18.7685 91.3033 19.4667L108.133 36.2967C108.831 36.999 109.78 37.3958 110.77 37.4C111.76 37.3958 112.708 36.999 113.407 36.2967L126.497 23.2067C127.199 22.5085 127.596 21.5603 127.6 20.57C127.6 20.0765 127.503 19.5878 127.314 19.132C127.124 18.6763 126.847 18.2625 126.497 17.9146ZM98.6149 11.22C98.0602 11.22 97.5179 11.0555 97.0566 10.7473C96.5953 10.4391 96.2358 10.001 96.0235 9.48843C95.8112 8.97588 95.7556 8.41189 95.8638 7.86777C95.9721 7.32365 96.2392 6.82385 96.6315 6.43157C97.0238 6.03928 97.5236 5.77213 98.0677 5.6639C98.6118 5.55567 99.1758 5.61121 99.6884 5.82352C100.201 6.03582 100.639 6.39535 100.947 6.85663C101.255 7.31791 101.42 7.86022 101.42 8.415C101.42 9.15893 101.124 9.87239 100.598 10.3984C100.072 10.9245 99.3589 11.22 98.6149 11.22ZM108.133 25.0767L100.653 17.5967L103.29 14.96L110.77 22.44M115.613 23.2067L105.328 12.9217L107.965 10.285L118.25 20.57L115.613 23.2067Z" fill="#FFED29"/>
</svg>
