<svg width="90" height="117" viewBox="0 0 90 117" fill="none" xmlns="http://www.w3.org/2000/svg">
<path d="M64.2857 95.4545H10.7143V21.2121H64.2857M64.2857 0H10.7143C4.76786 0 0 4.7197 0 10.6061V106.061C0 108.873 1.12882 111.571 3.13814 113.56C5.14746 115.549 7.87268 116.667 10.7143 116.667H64.2857C67.1273 116.667 69.8525 115.549 71.8618 113.56C73.8712 111.571 75 108.873 75 106.061V10.6061C75 4.7197 70.1786 0 64.2857 0Z" fill="#D4E0FF"/>
<path d="M26.3964 41.0556H56.6667V45.2778H26.3964V41.0556ZM26.3964 57.9444V53.7222H56.6667V57.9444H26.3964ZM19.9099 40C20.7701 40 21.595 40.3336 22.2032 40.9275C22.8114 41.5214 23.1531 42.3268 23.1531 43.1667C23.1531 44.0065 22.8114 44.812 22.2032 45.4058C21.595 45.9997 20.7701 46.3333 19.9099 46.3333C19.0497 46.3333 18.2248 45.9997 17.6166 45.4058C17.0084 44.812 16.6667 44.0065 16.6667 43.1667C16.6667 42.3268 17.0084 41.5214 17.6166 40.9275C18.2248 40.3336 19.0497 40 19.9099 40ZM19.9099 52.6667C20.7701 52.6667 21.595 53.0003 22.2032 53.5942C22.8114 54.188 23.1531 54.9935 23.1531 55.8333C23.1531 56.6732 22.8114 57.4786 22.2032 58.0725C21.595 58.6664 20.7701 59 19.9099 59C19.0497 59 18.2248 58.6664 17.6166 58.0725C17.0084 57.4786 16.6667 56.6732 16.6667 55.8333C16.6667 54.9935 17.0084 54.188 17.6166 53.5942C18.2248 53.0003 19.0497 52.6667 19.9099 52.6667ZM26.3964 70.6111V66.3889H56.6667V70.6111H26.3964ZM19.9099 65.3333C20.7701 65.3333 21.595 65.667 22.2032 66.2608C22.8114 66.8547 23.1531 67.6601 23.1531 68.5C23.1531 69.3398 22.8114 70.1453 22.2032 70.7392C21.595 71.333 20.7701 71.6667 19.9099 71.6667C19.0497 71.6667 18.2248 71.333 17.6166 70.7392C17.0084 70.1453 16.6667 69.3398 16.6667 68.5C16.6667 67.6601 17.0084 66.8547 17.6166 66.2608C18.2248 65.667 19.0497 65.3333 19.9099 65.3333Z" fill="#2962FF"/>
<path d="M56.4762 40C61.73 40 66.7686 42.1523 70.4836 45.9834C74.1986 49.8145 76.2857 55.0106 76.2857 60.4286C76.2857 65.4886 74.4876 70.14 71.5314 73.7228L72.3543 74.5714H74.7619L90 90.2857L85.4286 95L70.1905 79.2857V76.8029L69.3676 75.9543C65.8933 79.0028 61.3828 80.8571 56.4762 80.8571C51.2224 80.8571 46.1837 78.7048 42.4687 74.8737C38.7537 71.0426 36.6667 65.8466 36.6667 60.4286C36.6667 55.0106 38.7537 49.8145 42.4687 45.9834C46.1837 42.1523 51.2224 40 56.4762 40ZM56.4762 46.2857C48.8571 46.2857 42.7619 52.5714 42.7619 60.4286C42.7619 68.2857 48.8571 74.5714 56.4762 74.5714C64.0952 74.5714 70.1905 68.2857 70.1905 60.4286C70.1905 52.5714 64.0952 46.2857 56.4762 46.2857Z" fill="#FFED29"/>
</svg>
