<svg width="110" height="128" viewBox="0 0 110 128" fill="none" xmlns="http://www.w3.org/2000/svg">
<path d="M11.4456 31.4754C9.94255 31.4754 8.4542 31.1847 7.06556 30.6197C5.67692 30.0548 4.41516 29.2268 3.35234 28.1829C1.20587 26.0748 0 23.2156 0 20.2342C0 17.2528 1.20587 14.3936 3.35234 12.2855C5.49881 10.1773 8.41004 8.99298 11.4456 8.99298C13.7347 3.7096 18.9997 0 25.1803 0C33.032 0 39.4644 5.98033 40.0596 13.5569L41.2042 13.4895C43.6326 13.4895 45.9616 14.4369 47.6788 16.1234C49.396 17.81 50.3607 20.0974 50.3607 22.4824C50.3607 24.8675 49.396 27.1549 47.6788 28.8414C45.9616 30.5279 43.6326 31.4754 41.2042 31.4754H11.4456ZM41.2042 17.986H36.6259V15.7377C36.6259 12.7563 35.4201 9.8971 33.2736 7.78896C31.1271 5.68083 28.2159 4.49649 25.1803 4.49649C19.4575 4.49649 14.7648 8.58829 13.8721 13.9166C13.1167 13.6468 12.2926 13.4895 11.4456 13.4895C9.62427 13.4895 7.87753 14.2001 6.58965 15.4649C5.30177 16.7298 4.57824 18.4454 4.57824 20.2342C4.57824 22.023 5.30177 23.7386 6.58965 25.0034C7.87753 26.2683 9.62427 26.9789 11.4456 26.9789H41.2042C42.4184 26.9789 43.5829 26.5052 44.4415 25.6619C45.3001 24.8187 45.7824 23.675 45.7824 22.4824C45.7824 21.2899 45.3001 20.1462 44.4415 19.3029C43.5829 18.4597 42.4184 17.986 41.2042 17.986Z" fill="#FFED29"/>
<path d="M82.4865 91.0688C82.8642 88.022 83.1475 84.9752 83.1475 81.8361C83.1475 78.6969 82.8642 75.6501 82.4865 72.6033H98.4445C99.2 75.5578 99.6721 78.6507 99.6721 81.8361C99.6721 85.0214 99.2 88.1144 98.4445 91.0688M74.1298 116.736C76.9626 111.612 79.1344 106.072 80.6452 100.302H94.5731C90.0406 107.919 82.817 113.828 74.1298 116.736ZM72.9495 91.0688H50.8537C50.3816 88.022 50.0983 84.9752 50.0983 81.8361C50.0983 78.6969 50.3816 75.6039 50.8537 72.6033H72.9495C73.3744 75.6039 73.7049 78.6969 73.7049 81.8361C73.7049 84.9752 73.3744 88.022 72.9495 91.0688ZM61.9016 118.583C57.9829 113.043 54.8196 106.903 52.8839 100.302H70.9193C68.9836 106.903 65.8203 113.043 61.9016 118.583ZM43.0163 63.3705H29.2301C33.7154 55.7073 40.9862 49.7983 49.6262 46.9361C46.7934 52.0603 44.6688 57.6 43.0163 63.3705ZM29.2301 100.302H43.0163C44.6688 106.072 46.7934 111.612 49.6262 116.736C40.9862 113.828 33.7154 107.919 29.2301 100.302ZM25.3586 91.0688C24.6032 88.1144 24.1311 85.0214 24.1311 81.8361C24.1311 78.6507 24.6032 75.5578 25.3586 72.6033H41.3167C40.939 75.6501 40.6557 78.6969 40.6557 81.8361C40.6557 84.9752 40.939 88.022 41.3167 91.0688M61.9016 45.0434C65.8203 50.5831 68.9836 56.769 70.9193 63.3705H52.8839C54.8196 56.769 57.9829 50.5831 61.9016 45.0434ZM94.5731 63.3705H80.6452C79.1344 57.6 76.9626 52.0603 74.1298 46.9361C82.817 49.8444 90.0406 55.7073 94.5731 63.3705ZM61.9016 35.6721C35.7927 35.6721 14.6885 56.4459 14.6885 81.8361C14.6885 94.0795 19.6627 105.821 28.5169 114.479C32.901 118.766 38.1058 122.166 43.8339 124.486C49.5621 126.806 55.7015 128 61.9016 128C74.4233 128 86.4321 123.136 95.2863 114.479C104.14 105.821 109.115 94.0795 109.115 81.8361C109.115 75.7737 107.894 69.7707 105.521 64.1699C103.148 58.569 99.6704 53.4799 95.2863 49.1932C90.9022 44.9065 85.6974 41.5061 79.9693 39.1861C74.2411 36.8662 68.1017 35.6721 61.9016 35.6721Z" fill="#D4E0FF"/>
<path d="M84.2962 40.6286C82.9049 40.6286 81.5706 40.0759 80.5868 39.0921C79.603 38.1083 79.0503 36.774 79.0503 35.3827C79.0503 33.9914 79.603 32.6571 80.5868 31.6733C81.5706 30.6895 82.9049 30.1368 84.2962 30.1368C85.6875 30.1368 87.0218 30.6895 88.0056 31.6733C88.9894 32.6571 89.5421 33.9914 89.5421 35.3827C89.5421 36.0716 89.4064 36.7538 89.1428 37.3902C88.8791 38.0267 88.4927 38.605 88.0056 39.0921C87.5185 39.5792 86.9402 39.9656 86.3037 40.2293C85.6672 40.4929 84.9851 40.6286 84.2962 40.6286ZM84.2962 20.6942C80.4006 20.6942 76.6645 22.2417 73.9098 24.9963C71.1552 27.751 69.6077 31.4871 69.6077 35.3827C69.6077 46.3991 84.2962 62.6614 84.2962 62.6614C84.2962 62.6614 98.9847 46.3991 98.9847 35.3827C98.9847 31.4871 97.4372 27.751 94.6825 24.9963C91.9279 22.2417 88.1918 20.6942 84.2962 20.6942Z" fill="#2962FF"/>
</svg>
