<svg width="110" height="101" viewBox="0 0 110 101" fill="none" xmlns="http://www.w3.org/2000/svg">
<path d="M19.25 27.2629C21.438 27.2629 23.5365 26.4012 25.0836 24.8674C26.6308 23.3336 27.5 21.2532 27.5 19.084C27.5 16.9149 26.6308 14.8345 25.0836 13.3007C23.5365 11.7669 21.438 10.9052 19.25 10.9052C17.062 10.9052 14.9635 11.7669 13.4164 13.3007C11.8692 14.8345 11 16.9149 11 19.084C11 21.2532 11.8692 23.3336 13.4164 24.8674C14.9635 26.4012 17.062 27.2629 19.25 27.2629ZM84.755 41.3306C86.735 43.2935 88 46.0198 88 49.0733C88 52.0722 86.79 54.7985 84.755 56.7614L57.255 84.0243C55.275 85.9873 52.525 87.2414 49.5 87.2414C46.475 87.2414 43.725 86.0418 41.69 84.0243L3.245 45.9108C1.21 43.8933 0 41.167 0 38.1681V10.9052C0 4.8528 4.895 0 11 0H38.5C41.525 0 44.275 1.19957 46.255 3.1625L84.755 41.3306ZM63.47 9.32392L68.97 3.87134L106.755 41.3306C108.79 43.2935 110 46.0743 110 49.0733C110 52.0722 108.79 54.7985 106.81 56.7614L77.22 86.0963L71.72 80.6437L103.125 49.0733L63.47 9.32392Z" fill="#D4E0FF"/>
<path d="M45.9175 55.9177L47.259 64.336L54.978 68.2398L51.0855 75.873L55 83.5062L47.215 87.41L45.8735 95.8283L37.3188 94.4979L31.2272 100.517L25.1135 94.4107L16.6248 95.8065L15.2613 87.3227L7.58624 83.4407L11.5007 75.8075L7.60823 68.2398L15.3273 64.2923L16.6688 55.9395L25.1795 57.3353L31.2931 51.2069L37.3848 57.248L45.9175 55.9177ZM25.7952 64.9684C24.9204 64.9684 24.0813 65.3131 23.4627 65.9266C22.8441 66.5401 22.4965 67.3722 22.4965 68.2398C22.4965 69.1074 22.8441 69.9395 23.4627 70.553C24.0813 71.1665 24.9204 71.5112 25.7952 71.5112C26.6701 71.5112 27.5092 71.1665 28.1278 70.553C28.7464 69.9395 29.094 69.1074 29.094 68.2398C29.094 67.3722 28.7464 66.5401 28.1278 65.9266C27.5092 65.3131 26.6701 64.9684 25.7952 64.9684ZM36.791 80.2348C35.9161 80.2348 35.0771 80.5795 34.4585 81.193C33.8398 81.8065 33.4923 82.6385 33.4923 83.5062C33.4923 84.3738 33.8398 85.2059 34.4585 85.8194C35.0771 86.4329 35.9161 86.7775 36.791 86.7775C37.6659 86.7775 38.5049 86.4329 39.1236 85.8194C39.7422 85.2059 40.0898 84.3738 40.0898 83.5062C40.0898 82.6385 39.7422 81.8065 39.1236 81.193C38.5049 80.5795 37.6659 80.2348 36.791 80.2348ZM23.3982 86.7775L42.2889 68.0435L39.1881 64.9684L20.2974 83.7024L23.3982 86.7775Z" fill="#2962FF"/>
<path d="M30.3449 0H11.3793C10.3734 0 9.40856 0.399629 8.69722 1.11097C7.98587 1.82232 7.58624 2.78711 7.58624 3.7931V34.1379L20.8621 28.4483L34.138 34.1379V3.7931C34.138 1.68793 32.4311 0 30.3449 0Z" fill="#FFED29"/>
</svg>
